<svg width="162" height="322" viewBox="0 0 162 322" fill="none" xmlns="http://www.w3.org/2000/svg">
<rect x="1" y="1" width="80" height="80" stroke="#6929C4" stroke-width="2"/>
<rect x="81" y="1" width="80" height="80" stroke="#6929C4" stroke-width="2"/>
<rect x="1" y="81" width="80" height="80" stroke="#6929C4" stroke-width="2"/>
<rect x="1" y="161" width="80" height="80" stroke="#6929C4" stroke-width="2"/>
<rect x="1" y="241" width="80" height="80" stroke="#6929C4" stroke-width="2"/>
<rect x="81" y="81" width="80" height="80" stroke="#6929C4" stroke-width="2"/>
<rect x="81" y="161" width="80" height="80" stroke="#6929C4" stroke-width="2"/>
<rect x="81" y="241" width="80" height="80" stroke="#6929C4" stroke-width="2"/>
<path d="M9.9 16.156C9.31067 16.156 8.79933 16.052 8.366 15.844C7.93267 15.6273 7.573 15.3197 7.287 14.921C7.00967 14.5223 6.80167 14.0327 6.663 13.452C6.533 12.8713 6.468 12.2083 6.468 11.463C6.468 10.7263 6.533 10.0677 6.663 9.487C6.80167 8.89767 7.00967 8.40367 7.287 8.005C7.573 7.60633 7.93267 7.303 8.366 7.095C8.79933 6.87833 9.31067 6.77 9.9 6.77C11.0787 6.77 11.9453 7.18167 12.5 8.005C13.0547 8.82833 13.332 9.981 13.332 11.463C13.332 12.945 13.0547 14.0977 12.5 14.921C11.9453 15.7443 11.0787 16.156 9.9 16.156ZM9.9 14.791C10.524 14.791 10.9617 14.57 11.213 14.128C11.473 13.6773 11.603 13.0577 11.603 12.269V10.657C11.603 9.86833 11.473 9.253 11.213 8.811C10.9617 8.36033 10.524 8.135 9.9 8.135C9.276 8.135 8.834 8.36033 8.574 8.811C8.32267 9.253 8.197 9.86833 8.197 10.657V12.269C8.197 13.0577 8.32267 13.6773 8.574 14.128C8.834 14.57 9.276 14.791 9.9 14.791ZM9.9 12.23C9.59667 12.23 9.38433 12.1693 9.263 12.048C9.15033 11.9267 9.094 11.7793 9.094 11.606V11.32C9.094 11.1467 9.15033 10.9993 9.263 10.878C9.38433 10.7567 9.59667 10.696 9.9 10.696C10.2033 10.696 10.4113 10.7567 10.524 10.878C10.6453 10.9993 10.706 11.1467 10.706 11.32V11.606C10.706 11.7793 10.6453 11.9267 10.524 12.048C10.4113 12.1693 10.2033 12.23 9.9 12.23Z" fill="#6929C4"/>
<path d="M87.183 16V14.609H89.679V8.161H89.562L87.586 10.501L86.52 9.604L88.769 6.926H91.382V14.609H93.436V16H87.183Z" fill="#6929C4"/>
<path d="M13.15 96H6.754V94.414L9.666 91.931C10.1513 91.515 10.511 91.138 10.745 90.8C10.979 90.4533 11.096 90.085 11.096 89.695V89.565C11.096 89.1317 10.9747 88.8023 10.732 88.577C10.4893 88.3517 10.1513 88.239 9.718 88.239C9.24133 88.239 8.87733 88.369 8.626 88.629C8.37467 88.889 8.19267 89.2097 8.08 89.591L6.598 89.032C6.69333 88.7373 6.82767 88.4557 7.001 88.187C7.183 87.9097 7.404 87.667 7.664 87.459C7.93267 87.251 8.249 87.0863 8.613 86.965C8.977 86.835 9.393 86.77 9.861 86.77C10.3463 86.77 10.7753 86.8393 11.148 86.978C11.5293 87.108 11.85 87.2943 12.11 87.537C12.37 87.771 12.565 88.0527 12.695 88.382C12.8337 88.7113 12.903 89.071 12.903 89.461C12.903 89.8337 12.8423 90.176 12.721 90.488C12.6083 90.8 12.448 91.099 12.24 91.385C12.032 91.6623 11.785 91.931 11.499 92.191C11.2217 92.451 10.9183 92.711 10.589 92.971L8.613 94.57H13.15V96Z" fill="#6929C4"/>
<path d="M10.563 176V174.245H6.364V172.789L10.069 166.926H12.188V172.919H13.41V174.245H12.188V176H10.563ZM7.755 172.919H10.563V168.59H10.459L7.755 172.919Z" fill="#6929C4"/>
<path d="M9.939 256.156C9.41033 256.156 8.938 256.074 8.522 255.909C8.11467 255.736 7.768 255.497 7.482 255.194C7.196 254.882 6.975 254.509 6.819 254.076C6.67167 253.634 6.598 253.14 6.598 252.594C6.598 251.944 6.69767 251.333 6.897 250.761C7.09633 250.18 7.352 249.652 7.664 249.175C7.98467 248.69 8.34 248.256 8.73 247.875C9.12 247.494 9.51 247.177 9.9 246.926H12.214C11.668 247.307 11.1783 247.676 10.745 248.031C10.3203 248.378 9.94767 248.733 9.627 249.097C9.315 249.461 9.05067 249.842 8.834 250.241C8.626 250.631 8.47 251.06 8.366 251.528L8.47 251.554C8.55667 251.381 8.66067 251.216 8.782 251.06C8.90333 250.895 9.04633 250.752 9.211 250.631C9.38433 250.501 9.57933 250.401 9.796 250.332C10.0213 250.254 10.2813 250.215 10.576 250.215C10.9573 250.215 11.3127 250.28 11.642 250.41C11.9713 250.54 12.253 250.731 12.487 250.982C12.7297 251.225 12.9203 251.519 13.059 251.866C13.1977 252.213 13.267 252.603 13.267 253.036C13.267 253.495 13.189 253.916 13.033 254.297C12.877 254.678 12.6517 255.008 12.357 255.285C12.071 255.562 11.72 255.779 11.304 255.935C10.8967 256.082 10.4417 256.156 9.939 256.156ZM9.926 254.817C10.446 254.817 10.8403 254.683 11.109 254.414C11.3777 254.137 11.512 253.747 11.512 253.244V253.088C11.512 252.585 11.3733 252.2 11.096 251.931C10.8273 251.662 10.4373 251.528 9.926 251.528C9.432 251.528 9.04633 251.662 8.769 251.931C8.49167 252.2 8.353 252.585 8.353 253.088V253.244C8.353 253.747 8.48733 254.137 8.756 254.414C9.02467 254.683 9.41467 254.817 9.926 254.817Z" fill="#6929C4"/>
<path d="M89.536 90.592C90.082 90.592 90.4807 90.4837 90.732 90.267C90.992 90.0503 91.122 89.7773 91.122 89.448V89.357C91.122 88.9843 90.9963 88.694 90.745 88.486C90.5023 88.278 90.1643 88.174 89.731 88.174C89.315 88.174 88.951 88.2693 88.639 88.46C88.327 88.6507 88.0583 88.9193 87.833 89.266L86.728 88.278C86.884 88.07 87.0573 87.875 87.248 87.693C87.4473 87.5023 87.6683 87.342 87.911 87.212C88.1623 87.0733 88.4397 86.965 88.743 86.887C89.0463 86.809 89.393 86.77 89.783 86.77C90.2423 86.77 90.6627 86.8263 91.044 86.939C91.434 87.043 91.7633 87.199 92.032 87.407C92.3093 87.615 92.5217 87.8663 92.669 88.161C92.825 88.447 92.903 88.772 92.903 89.136C92.903 89.422 92.8553 89.682 92.76 89.916C92.6647 90.15 92.5347 90.3537 92.37 90.527C92.214 90.7003 92.0277 90.8433 91.811 90.956C91.603 91.0687 91.3777 91.151 91.135 91.203V91.268C91.4037 91.32 91.655 91.4067 91.889 91.528C92.123 91.6407 92.3267 91.788 92.5 91.97C92.6733 92.152 92.812 92.373 92.916 92.633C93.02 92.8843 93.072 93.1703 93.072 93.491C93.072 93.8897 92.9897 94.2537 92.825 94.583C92.6603 94.9123 92.4263 95.194 92.123 95.428C91.8283 95.662 91.4687 95.844 91.044 95.974C90.628 96.0953 90.16 96.156 89.64 96.156C89.2067 96.156 88.821 96.1083 88.483 96.013C88.145 95.9263 87.846 95.805 87.586 95.649C87.326 95.493 87.1007 95.3153 86.91 95.116C86.7193 94.908 86.5503 94.6957 86.403 94.479L87.664 93.504C87.8807 93.868 88.1363 94.167 88.431 94.401C88.7343 94.635 89.146 94.752 89.666 94.752C90.186 94.752 90.5847 94.635 90.862 94.401C91.148 94.1583 91.291 93.8247 91.291 93.4V93.296C91.291 92.88 91.1393 92.5637 90.836 92.347C90.5327 92.1217 90.1037 92.009 89.549 92.009H88.639V90.592H89.536Z" fill="#6929C4"/>
<path d="M92.734 168.408H88.574L88.353 171.45H88.457C88.561 171.259 88.6737 171.086 88.795 170.93C88.9163 170.765 89.055 170.627 89.211 170.514C89.3757 170.401 89.5577 170.315 89.757 170.254C89.965 170.193 90.2033 170.163 90.472 170.163C90.8533 170.163 91.213 170.228 91.551 170.358C91.889 170.488 92.1837 170.674 92.435 170.917C92.6863 171.16 92.8813 171.459 93.02 171.814C93.1673 172.169 93.241 172.572 93.241 173.023C93.241 173.474 93.163 173.89 93.007 174.271C92.8597 174.652 92.6387 174.986 92.344 175.272C92.058 175.549 91.7027 175.766 91.278 175.922C90.862 176.078 90.381 176.156 89.835 176.156C89.4103 176.156 89.029 176.108 88.691 176.013C88.3617 175.926 88.0713 175.805 87.82 175.649C87.5687 175.493 87.3477 175.315 87.157 175.116C86.9663 174.908 86.8017 174.696 86.663 174.479L87.898 173.504C88.002 173.677 88.1147 173.842 88.236 173.998C88.366 174.145 88.509 174.275 88.665 174.388C88.821 174.501 88.9943 174.592 89.185 174.661C89.3843 174.722 89.6097 174.752 89.861 174.752C90.381 174.752 90.7753 174.613 91.044 174.336C91.3213 174.05 91.46 173.66 91.46 173.166V173.062C91.46 172.585 91.3213 172.213 91.044 171.944C90.7667 171.675 90.3767 171.541 89.874 171.541C89.4927 171.541 89.1807 171.615 88.938 171.762C88.704 171.901 88.5133 172.052 88.366 172.217L86.975 172.022L87.313 166.926H92.734V168.408Z" fill="#6929C4"/>
<path d="M88.171 256L91.408 248.317H88.171V249.981H86.715V246.926H93.098V248.408L89.965 256H88.171Z" fill="#6929C4"/>
</svg>
