<svg width="236" height="102" viewBox="0 0 236 102" fill="none" xmlns="http://www.w3.org/2000/svg">
<rect x="195" y="14" width="20" height="20" stroke="black" stroke-width="2"/>
<rect x="215" y="14" width="20" height="20" stroke="black" stroke-width="2"/>
<rect x="195" y="34" width="20" height="20" fill="black" stroke="black" stroke-width="2"/>
<rect x="195" y="54" width="20" height="20" fill="black" stroke="black" stroke-width="2"/>
<rect x="195" y="74" width="20" height="20" stroke="black" stroke-width="2"/>
<rect x="215" y="34" width="20" height="20" stroke="black" stroke-width="2"/>
<rect x="215" y="54" width="20" height="20" fill="black" stroke="black" stroke-width="2"/>
<rect x="215" y="74" width="20" height="20" fill="black" stroke="black" stroke-width="2"/>
<path d="M1.85125 55V52.86H5.69125V42.94H5.51125L2.47125 46.54L0.83125 45.16L4.29125 41.04H8.31125V52.86H11.4713V55H1.85125ZM18.0234 55.24C17.1168 55.24 16.3301 55.08 15.6634 54.76C14.9968 54.4267 14.4434 53.9533 14.0034 53.34C13.5768 52.7267 13.2568 51.9733 13.0434 51.08C12.8434 50.1867 12.7434 49.1667 12.7434 48.02C12.7434 46.8867 12.8434 45.8733 13.0434 44.98C13.2568 44.0733 13.5768 43.3133 14.0034 42.7C14.4434 42.0867 14.9968 41.62 15.6634 41.3C16.3301 40.9667 17.1168 40.8 18.0234 40.8C19.8368 40.8 21.1701 41.4333 22.0234 42.7C22.8768 43.9667 23.3034 45.74 23.3034 48.02C23.3034 50.3 22.8768 52.0733 22.0234 53.34C21.1701 54.6067 19.8368 55.24 18.0234 55.24ZM18.0234 53.14C18.9834 53.14 19.6568 52.8 20.0434 52.12C20.4434 51.4267 20.6434 50.4733 20.6434 49.26V46.78C20.6434 45.5667 20.4434 44.62 20.0434 43.94C19.6568 43.2467 18.9834 42.9 18.0234 42.9C17.0634 42.9 16.3834 43.2467 15.9834 43.94C15.5968 44.62 15.4034 45.5667 15.4034 46.78V49.26C15.4034 50.4733 15.5968 51.4267 15.9834 52.12C16.3834 52.8 17.0634 53.14 18.0234 53.14ZM18.0234 49.2C17.5568 49.2 17.2301 49.1067 17.0434 48.92C16.8701 48.7333 16.7834 48.5067 16.7834 48.24V47.8C16.7834 47.5333 16.8701 47.3067 17.0434 47.12C17.2301 46.9333 17.5568 46.84 18.0234 46.84C18.4901 46.84 18.8101 46.9333 18.9834 47.12C19.1701 47.3067 19.2634 47.5333 19.2634 47.8V48.24C19.2634 48.5067 19.1701 48.7333 18.9834 48.92C18.8101 49.1067 18.4901 49.2 18.0234 49.2ZM25.8356 55V52.86H29.6756V42.94H29.4956L26.4556 46.54L24.8156 45.16L28.2756 41.04H32.2956V52.86H35.4556V55H25.8356ZM37.8278 55V52.86H41.6678V42.94H41.4878L38.4478 46.54L36.8078 45.16L40.2678 41.04H44.2878V52.86H47.4478V55H37.8278ZM54 55.24C53.0933 55.24 52.3067 55.08 51.64 54.76C50.9733 54.4267 50.42 53.9533 49.98 53.34C49.5533 52.7267 49.2333 51.9733 49.02 51.08C48.82 50.1867 48.72 49.1667 48.72 48.02C48.72 46.8867 48.82 45.8733 49.02 44.98C49.2333 44.0733 49.5533 43.3133 49.98 42.7C50.42 42.0867 50.9733 41.62 51.64 41.3C52.3067 40.9667 53.0933 40.8 54 40.8C55.8133 40.8 57.1467 41.4333 58 42.7C58.8533 43.9667 59.28 45.74 59.28 48.02C59.28 50.3 58.8533 52.0733 58 53.34C57.1467 54.6067 55.8133 55.24 54 55.24ZM54 53.14C54.96 53.14 55.6333 52.8 56.02 52.12C56.42 51.4267 56.62 50.4733 56.62 49.26V46.78C56.62 45.5667 56.42 44.62 56.02 43.94C55.6333 43.2467 54.96 42.9 54 42.9C53.04 42.9 52.36 43.2467 51.96 43.94C51.5733 44.62 51.38 45.5667 51.38 46.78V49.26C51.38 50.4733 51.5733 51.4267 51.96 52.12C52.36 52.8 53.04 53.14 54 53.14ZM54 49.2C53.5333 49.2 53.2067 49.1067 53.02 48.92C52.8467 48.7333 52.76 48.5067 52.76 48.24V47.8C52.76 47.5333 52.8467 47.3067 53.02 47.12C53.2067 46.9333 53.5333 46.84 54 46.84C54.4667 46.84 54.7867 46.9333 54.96 47.12C55.1467 47.3067 55.24 47.5333 55.24 47.8V48.24C55.24 48.5067 55.1467 48.7333 54.96 48.92C54.7867 49.1067 54.4667 49.2 54 49.2ZM61.8122 55V52.86H65.6522V42.94H65.4722L62.4322 46.54L60.7922 45.16L64.2522 41.04H68.2722V52.86H71.4322V55H61.8122ZM77.9844 55.24C77.0777 55.24 76.291 55.08 75.6244 54.76C74.9577 54.4267 74.4044 53.9533 73.9644 53.34C73.5377 52.7267 73.2177 51.9733 73.0044 51.08C72.8044 50.1867 72.7044 49.1667 72.7044 48.02C72.7044 46.8867 72.8044 45.8733 73.0044 44.98C73.2177 44.0733 73.5377 43.3133 73.9644 42.7C74.4044 42.0867 74.9577 41.62 75.6244 41.3C76.291 40.9667 77.0777 40.8 77.9844 40.8C79.7977 40.8 81.131 41.4333 81.9844 42.7C82.8377 43.9667 83.2644 45.74 83.2644 48.02C83.2644 50.3 82.8377 52.0733 81.9844 53.34C81.131 54.6067 79.7977 55.24 77.9844 55.24ZM77.9844 53.14C78.9444 53.14 79.6177 52.8 80.0044 52.12C80.4044 51.4267 80.6044 50.4733 80.6044 49.26V46.78C80.6044 45.5667 80.4044 44.62 80.0044 43.94C79.6177 43.2467 78.9444 42.9 77.9844 42.9C77.0244 42.9 76.3444 43.2467 75.9444 43.94C75.5577 44.62 75.3644 45.5667 75.3644 46.78V49.26C75.3644 50.4733 75.5577 51.4267 75.9444 52.12C76.3444 52.8 77.0244 53.14 77.9844 53.14ZM77.9844 49.2C77.5177 49.2 77.191 49.1067 77.0044 48.92C76.831 48.7333 76.7444 48.5067 76.7444 48.24V47.8C76.7444 47.5333 76.831 47.3067 77.0044 47.12C77.191 46.9333 77.5177 46.84 77.9844 46.84C78.451 46.84 78.771 46.9333 78.9444 47.12C79.131 47.3067 79.2244 47.5333 79.2244 47.8V48.24C79.2244 48.5067 79.131 48.7333 78.9444 48.92C78.771 49.1067 78.451 49.2 77.9844 49.2ZM89.9766 55.24C89.0699 55.24 88.2832 55.08 87.6166 54.76C86.9499 54.4267 86.3966 53.9533 85.9566 53.34C85.5299 52.7267 85.2099 51.9733 84.9966 51.08C84.7966 50.1867 84.6966 49.1667 84.6966 48.02C84.6966 46.8867 84.7966 45.8733 84.9966 44.98C85.2099 44.0733 85.5299 43.3133 85.9566 42.7C86.3966 42.0867 86.9499 41.62 87.6166 41.3C88.2832 40.9667 89.0699 40.8 89.9766 40.8C91.7899 40.8 93.1232 41.4333 93.9766 42.7C94.8299 43.9667 95.2566 45.74 95.2566 48.02C95.2566 50.3 94.8299 52.0733 93.9766 53.34C93.1232 54.6067 91.7899 55.24 89.9766 55.24ZM89.9766 53.14C90.9366 53.14 91.6099 52.8 91.9966 52.12C92.3966 51.4267 92.5966 50.4733 92.5966 49.26V46.78C92.5966 45.5667 92.3966 44.62 91.9966 43.94C91.6099 43.2467 90.9366 42.9 89.9766 42.9C89.0166 42.9 88.3366 43.2467 87.9366 43.94C87.5499 44.62 87.3566 45.5667 87.3566 46.78V49.26C87.3566 50.4733 87.5499 51.4267 87.9366 52.12C88.3366 52.8 89.0166 53.14 89.9766 53.14ZM89.9766 49.2C89.5099 49.2 89.1832 49.1067 88.9966 48.92C88.8232 48.7333 88.7366 48.5067 88.7366 48.24V47.8C88.7366 47.5333 88.8232 47.3067 88.9966 47.12C89.1832 46.9333 89.5099 46.84 89.9766 46.84C90.4432 46.84 90.7632 46.9333 90.9366 47.12C91.1232 47.3067 91.2166 47.5333 91.2166 47.8V48.24C91.2166 48.5067 91.1232 48.7333 90.9366 48.92C90.7632 49.1067 90.4432 49.2 89.9766 49.2Z" fill="black"/>
<path d="M5.4965 68L7.6805 62.992H5.2325V64.032H4.6325V62.416H8.3605V63.008L6.2165 68H5.4965ZM18.5174 68.096C18.224 68.096 17.96 68.048 17.7254 67.952C17.4907 67.8507 17.2907 67.7093 17.1254 67.528C16.9654 67.3413 16.84 67.1147 16.7494 66.848C16.664 66.5813 16.6214 66.2827 16.6214 65.952C16.6214 65.536 16.6827 65.1467 16.8054 64.784C16.9334 64.416 17.0934 64.0827 17.2854 63.784C17.4827 63.48 17.7014 63.2133 17.9414 62.984C18.1814 62.7493 18.416 62.56 18.6454 62.416H19.5094C19.2054 62.6347 18.9334 62.848 18.6934 63.056C18.4587 63.264 18.2507 63.4827 18.0694 63.712C17.888 63.936 17.736 64.1787 17.6134 64.44C17.4907 64.696 17.3894 64.9867 17.3094 65.312L17.3494 65.328C17.4827 65.0987 17.6587 64.9093 17.8774 64.76C18.096 64.6053 18.3787 64.528 18.7254 64.528C18.9707 64.528 19.1947 64.568 19.3974 64.648C19.6 64.728 19.776 64.8427 19.9254 64.992C20.0747 65.1413 20.1894 65.3227 20.2694 65.536C20.3547 65.7493 20.3974 65.9867 20.3974 66.248C20.3974 66.52 20.352 66.7707 20.2614 67C20.1707 67.224 20.0427 67.4187 19.8774 67.584C19.7174 67.744 19.52 67.8693 19.2854 67.96C19.056 68.0507 18.8 68.096 18.5174 68.096ZM18.5094 67.528C18.8934 67.528 19.1894 67.424 19.3974 67.216C19.6107 67.008 19.7174 66.7147 19.7174 66.336V66.272C19.7174 65.8933 19.6107 65.6 19.3974 65.392C19.1894 65.184 18.8934 65.08 18.5094 65.08C18.1254 65.08 17.8267 65.184 17.6134 65.392C17.4054 65.6 17.3014 65.8933 17.3014 66.272V66.336C17.3014 66.7147 17.4054 67.008 17.6134 67.216C17.8267 67.424 18.1254 67.528 18.5094 67.528ZM32.1142 63H29.6182L29.4582 65.136H29.5142C29.6529 64.9493 29.8076 64.8027 29.9782 64.696C30.1489 64.584 30.3836 64.528 30.6822 64.528C30.9276 64.528 31.1516 64.568 31.3542 64.648C31.5622 64.7227 31.7409 64.8347 31.8902 64.984C32.0396 65.1333 32.1569 65.3147 32.2422 65.528C32.3276 65.736 32.3702 65.976 32.3702 66.248C32.3702 66.52 32.3276 66.7707 32.2422 67C32.1569 67.224 32.0316 67.4187 31.8662 67.584C31.7009 67.744 31.5009 67.8693 31.2662 67.96C31.0316 68.0507 30.7649 68.096 30.4662 68.096C30.2316 68.096 30.0209 68.0693 29.8342 68.016C29.6529 67.9627 29.4902 67.8907 29.3462 67.8C29.2076 67.7093 29.0849 67.608 28.9782 67.496C28.8716 67.384 28.7756 67.2667 28.6902 67.144L29.1942 66.76C29.2689 66.872 29.3436 66.9733 29.4182 67.064C29.4982 67.1547 29.5889 67.2347 29.6902 67.304C29.7916 67.368 29.9062 67.4187 30.0342 67.456C30.1622 67.4933 30.3116 67.512 30.4822 67.512C30.8662 67.512 31.1596 67.408 31.3622 67.2C31.5702 66.992 31.6742 66.704 31.6742 66.336V66.272C31.6742 65.904 31.5702 65.616 31.3622 65.408C31.1542 65.2 30.8556 65.096 30.4662 65.096C30.1996 65.096 29.9916 65.1413 29.8422 65.232C29.6982 65.3227 29.5649 65.4347 29.4422 65.568L28.8742 65.488L29.0742 62.416H32.1142V63ZM43.1271 68V66.904H40.3751V66.312L42.7911 62.416H43.7671V66.352H44.5991V66.904H43.7671V68H43.1271ZM40.9751 66.352H43.1271V62.936H43.0951L40.9751 66.352ZM54.26 64.784C54.6493 64.784 54.94 64.6987 55.132 64.528C55.3293 64.352 55.428 64.128 55.428 63.856V63.8C55.428 63.5013 55.332 63.2773 55.14 63.128C54.9533 62.9787 54.708 62.904 54.404 62.904C54.1053 62.904 53.8627 62.9707 53.676 63.104C53.4947 63.232 53.3453 63.4027 53.228 63.616L52.724 63.232C52.7933 63.12 52.8787 63.0107 52.98 62.904C53.0813 62.792 53.1987 62.6933 53.332 62.608C53.4707 62.5227 53.628 62.4533 53.804 62.4C53.9853 62.3467 54.1907 62.32 54.42 62.32C54.66 62.32 54.884 62.352 55.092 62.416C55.3 62.4747 55.4813 62.5653 55.636 62.688C55.7907 62.8053 55.9107 62.952 55.996 63.128C56.0867 63.304 56.132 63.504 56.132 63.728C56.132 63.9093 56.1027 64.072 56.044 64.216C55.9907 64.36 55.9133 64.4853 55.812 64.592C55.716 64.6987 55.6013 64.7893 55.468 64.864C55.3347 64.9387 55.1933 64.9947 55.044 65.032V65.064C55.1987 65.096 55.348 65.1493 55.492 65.224C55.636 65.2933 55.764 65.3867 55.876 65.504C55.988 65.616 56.076 65.7547 56.14 65.92C56.2093 66.08 56.244 66.264 56.244 66.472C56.244 66.712 56.196 66.9333 56.1 67.136C56.0093 67.3333 55.8787 67.504 55.708 67.648C55.5427 67.7867 55.34 67.896 55.1 67.976C54.8653 68.056 54.604 68.096 54.316 68.096C54.0707 68.096 53.852 68.0693 53.66 68.016C53.4733 67.9627 53.3053 67.8907 53.156 67.8C53.012 67.7093 52.884 67.608 52.772 67.496C52.6653 67.384 52.5693 67.2667 52.484 67.144L52.988 66.76C53.0627 66.872 53.14 66.9733 53.22 67.064C53.3 67.1547 53.3907 67.2347 53.492 67.304C53.5987 67.368 53.7187 67.4187 53.852 67.456C53.9853 67.4933 54.14 67.512 54.316 67.512C54.7107 67.512 55.012 67.4213 55.22 67.24C55.4333 67.0587 55.54 66.8 55.54 66.464V66.4C55.54 66.0693 55.436 65.8133 55.228 65.632C55.0253 65.4507 54.7187 65.36 54.308 65.36H53.644V64.784H54.26ZM68.3929 68H64.6649V67.312L66.5289 65.632C66.8009 65.3867 67.0249 65.136 67.2009 64.88C67.3769 64.6187 67.4649 64.344 67.4649 64.056V63.96C67.4649 63.624 67.3769 63.3653 67.2009 63.184C67.0249 62.9973 66.7635 62.904 66.4169 62.904C66.0755 62.904 65.8115 62.992 65.6249 63.168C65.4435 63.3387 65.3075 63.568 65.2169 63.856L64.6169 63.632C64.6702 63.4667 64.7422 63.3067 64.8329 63.152C64.9289 62.992 65.0489 62.8507 65.1929 62.728C65.3369 62.6053 65.5102 62.5067 65.7129 62.432C65.9209 62.3573 66.1609 62.32 66.4329 62.32C66.7102 62.32 66.9555 62.36 67.1689 62.44C67.3875 62.52 67.5689 62.632 67.7129 62.776C67.8622 62.92 67.9742 63.0907 68.0489 63.288C68.1289 63.4853 68.1689 63.7013 68.1689 63.936C68.1689 64.1493 68.1369 64.3493 68.0729 64.536C68.0142 64.7227 67.9289 64.9013 67.8169 65.072C67.7102 65.2427 67.5795 65.4107 67.4249 65.576C67.2755 65.736 67.1075 65.896 66.9209 66.056L65.3609 67.416H68.3929V68ZM76.7738 68V67.416H78.3738V62.912H78.3178L76.9098 64.224L76.5178 63.8L77.9978 62.416H79.0458V67.416H80.5178V68H76.7738ZM90.4906 68.096C90.1493 68.096 89.856 68.032 89.6106 67.904C89.3653 67.7707 89.1626 67.5813 89.0026 67.336C88.8426 67.0907 88.7253 66.7893 88.6506 66.432C88.576 66.0747 88.5386 65.6667 88.5386 65.208C88.5386 64.7547 88.576 64.3493 88.6506 63.992C88.7253 63.6293 88.8426 63.3253 89.0026 63.08C89.1626 62.8347 89.3653 62.648 89.6106 62.52C89.856 62.3867 90.1493 62.32 90.4906 62.32C90.832 62.32 91.1253 62.3867 91.3706 62.52C91.616 62.648 91.8186 62.8347 91.9786 63.08C92.1386 63.3253 92.256 63.6293 92.3306 63.992C92.4053 64.3493 92.4426 64.7547 92.4426 65.208C92.4426 65.6667 92.4053 66.0747 92.3306 66.432C92.256 66.7893 92.1386 67.0907 91.9786 67.336C91.8186 67.5813 91.616 67.7707 91.3706 67.904C91.1253 68.032 90.832 68.096 90.4906 68.096ZM90.4906 67.512C90.7146 67.512 90.9066 67.4693 91.0666 67.384C91.2266 67.2933 91.3546 67.168 91.4506 67.008C91.552 66.848 91.6266 66.656 91.6746 66.432C91.7226 66.2027 91.7466 65.9467 91.7466 65.664V64.752C91.7466 64.4747 91.7226 64.2213 91.6746 63.992C91.6266 63.7627 91.552 63.568 91.4506 63.408C91.3546 63.248 91.2266 63.1253 91.0666 63.04C90.9066 62.9493 90.7146 62.904 90.4906 62.904C90.2666 62.904 90.0746 62.9493 89.9146 63.04C89.7546 63.1253 89.624 63.248 89.5226 63.408C89.4266 63.568 89.3546 63.7627 89.3066 63.992C89.2586 64.2213 89.2346 64.4747 89.2346 64.752V65.664C89.2346 65.9467 89.2586 66.2027 89.3066 66.432C89.3546 66.656 89.4266 66.848 89.5226 67.008C89.624 67.168 89.7546 67.2933 89.9146 67.384C90.0746 67.4693 90.2666 67.512 90.4906 67.512ZM90.4906 65.68C90.304 65.68 90.1733 65.6427 90.0986 65.568C90.0293 65.4933 89.9946 65.4027 89.9946 65.296V65.12C89.9946 65.0133 90.0293 64.9227 90.0986 64.848C90.1733 64.7733 90.304 64.736 90.4906 64.736C90.6773 64.736 90.8053 64.7733 90.8746 64.848C90.9493 64.9227 90.9866 65.0133 90.9866 65.12V65.296C90.9866 65.4027 90.9493 65.4933 90.8746 65.568C90.8053 65.6427 90.6773 65.68 90.4906 65.68Z" fill="black"/>
<path d="M151.297 68.8767L147.537 65.1167L154.273 58.38L158.19 55.09L158.112 54.855L150.592 55.325H124.272V49.9983H150.592L158.112 50.4683L158.19 50.2333L154.273 46.9433L147.537 40.2067L151.297 36.4467L167.512 52.6617L151.297 68.8767Z" fill="black"/>
</svg>
