<svg fill="none" height="470" viewBox="0 0 1302 470" width="1302" xmlns="http://www.w3.org/2000/svg"><path d="m187.072 72.6647h95.8553v95.8553h-95.8553z" stroke="#fff" stroke-width="3.09211"/><path d="m217.892 115.211h-3.377v-28.0578h10.21c2.6 0 4.583.7101 5.949 2.1304 1.367 1.4203 2.051 3.4034 2.051 5.9492 0 2.2779-.59 4.1002-1.769 5.4672-1.179 1.366-2.894 2.157-5.145 2.371l7.155 12.14h-3.779l-6.833-11.979h-4.462zm6.753-14.833c1.42 0 2.519-.348 3.296-1.045.804-.7236 1.206-1.7419 1.206-3.055v-2.0903c0-1.3131-.402-2.318-1.206-3.0148-.777-.7235-1.876-1.0853-3.296-1.0853h-6.753v10.2904zm11.44 22.833 4.631-6.319-4.438-6.126h3.063l1.64 2.363 1.303 1.882h.145l1.278-1.882 1.64-2.363h2.846l-4.462 6.029 4.679 6.416h-3.087l-1.857-2.677-1.279-1.833h-.144l-1.255 1.833-1.833 2.677z" fill="#fff"/><path d="m212.014 150.109c1.204 0 2.103-.264 2.697-.792.61-.544.915-1.237.915-2.078v-.173c0-.924-.297-1.616-.891-2.078-.577-.462-1.335-.693-2.275-.693-.924 0-1.674.207-2.251.619-.561.396-1.023.923-1.386 1.583l-1.558-1.187c.214-.347.478-.685.791-1.015.314-.346.677-.651 1.089-.915.429-.264.915-.478 1.459-.643.561-.165 1.196-.247 1.905-.247.742 0 1.435.099 2.078.296.643.182 1.204.462 1.682.841.478.363.849.817 1.113 1.361.281.544.421 1.163.421 1.855 0 .561-.091 1.064-.272 1.509-.165.445-.404.833-.718 1.163-.297.33-.651.61-1.063.841-.413.231-.85.404-1.311.519v.099c.478.099.94.264 1.385.495.445.214.841.503 1.187.866.346.346.619.775.816 1.286.215.495.322 1.064.322 1.707 0 .742-.148 1.426-.445 2.053-.281.61-.685 1.138-1.212 1.583-.512.429-1.138.767-1.88 1.015-.726.247-1.534.371-2.425.371-.758 0-1.434-.083-2.028-.248-.577-.165-1.097-.387-1.558-.668-.446-.28-.841-.593-1.188-.94-.33-.346-.626-.709-.89-1.088l1.558-1.187c.231.346.47.659.718.94.247.28.527.527.841.742.329.198.7.354 1.113.47.412.115.89.173 1.434.173 1.221 0 2.153-.281 2.796-.841.659-.561.989-1.361.989-2.4v-.198c0-1.022-.321-1.814-.965-2.374-.626-.561-1.574-.841-2.844-.841h-2.053v-1.781zm10.924-1.138h-2.275v-1.682h13.481v1.682h-2.276v9.4h2.276v1.682h-1.435c-.973 0-1.69-.272-2.152-.817-.445-.544-.668-1.245-.668-2.102v-8.163h-4.972v11.082h-1.979zm14.289 14.495 8.608-22.213h1.781l-8.608 22.213zm16.885-3.413 6.753-15.486h-7.569v3.216h-1.855v-4.997h11.527v1.831l-6.63 15.436z" fill="#fff"/><path d="m604.507 72.6647h95.8553v95.8553h-95.8553z" stroke="#fff" stroke-width="3.09211"/><path d="m635.326 115.211h-3.377v-28.0578h10.21c2.6 0 4.583.7101 5.95 2.1304 1.366 1.4203 2.05 3.4034 2.05 5.9492 0 2.2779-.59 4.1002-1.769 5.4672-1.179 1.366-2.894 2.157-5.145 2.371l7.155 12.14h-3.779l-6.833-11.979h-4.462zm6.753-14.833c1.42 0 2.519-.348 3.296-1.045.804-.7236 1.206-1.7419 1.206-3.055v-2.0903c0-1.3131-.402-2.318-1.206-3.0148-.777-.7235-1.876-1.0853-3.296-1.0853h-6.753v10.2904zm11.44 22.833 4.631-6.319-4.438-6.126h3.063l1.641 2.363 1.302 1.882h.145l1.278-1.882 1.64-2.363h2.846l-4.462 6.029 4.679 6.416h-3.087l-1.857-2.677-1.279-1.833h-.144l-1.254 1.833-1.833 2.677z" fill="#fff"/><path d="m632.956 148.971h-2.276v-1.682h13.482v1.682h-2.276v9.4h2.276v1.682h-1.435c-.973 0-1.69-.272-2.152-.817-.445-.544-.668-1.245-.668-2.102v-8.163h-4.972v11.082h-1.979zm14.288 14.495 8.609-22.213h1.781l-8.609 22.213zm21.957-3.413v-3.389h-8.509v-1.831l7.47-12.047h3.018v12.171h2.573v1.707h-2.573v3.389zm-6.654-5.096h6.654v-10.563h-.099z" fill="#fff"/><path d="m743.652 72.6647h95.8553v95.8553h-95.8553z" stroke="#fff" stroke-width="3.09211"/><path d="m774.471 115.211h-3.377v-28.0578h10.21c2.6 0 4.583.7101 5.95 2.1304 1.366 1.4203 2.05 3.4034 2.05 5.9492 0 2.2779-.59 4.1002-1.769 5.4672-1.179 1.366-2.894 2.157-5.145 2.371l7.155 12.14h-3.779l-6.833-11.979h-4.462zm6.753-14.833c1.42 0 2.519-.348 3.296-1.045.804-.7236 1.206-1.7419 1.206-3.055v-2.0903c0-1.3131-.402-2.318-1.206-3.0148-.777-.7235-1.876-1.0853-3.296-1.0853h-6.753v10.2904zm11.44 22.833 4.631-6.319-4.438-6.126h3.063l1.641 2.363 1.302 1.882h.145l1.278-1.882 1.64-2.363h2.846l-4.462 6.029 4.679 6.416h-3.087l-1.857-2.677-1.279-1.833h-.144l-1.254 1.833-1.833 2.677z" fill="#fff"/><path d="m775.198 160.053h-11.527v-2.128l5.763-5.194c.842-.759 1.534-1.534 2.078-2.326.545-.808.817-1.657.817-2.548v-.296c0-1.039-.272-1.839-.817-2.4-.544-.577-1.352-.866-2.424-.866-1.055 0-1.872.272-2.449.817-.561.527-.981 1.237-1.261 2.127l-1.856-.693c.165-.511.388-1.006.668-1.484.297-.495.668-.932 1.113-1.311.446-.379.982-.684 1.608-.915.643-.231 1.386-.346 2.227-.346.857 0 1.616.123 2.275.371.677.247 1.237.593 1.683 1.039.461.445.808.973 1.038 1.583.248.61.372 1.278.372 2.003 0 .66-.099 1.278-.297 1.856-.182.577-.446 1.129-.792 1.657-.33.528-.734 1.047-1.212 1.558-.462.495-.981.99-1.558 1.485l-4.824 4.205h9.375zm4.319-11.082h-2.275v-1.682h13.481v1.682h-2.276v9.4h2.276v1.682h-1.435c-.973 0-1.69-.272-2.152-.817-.445-.544-.668-1.245-.668-2.102v-8.163h-4.972v11.082h-1.979zm14.289 14.495 8.608-22.213h1.781l-8.608 22.213zm19.285-13.357c1.204 0 2.102-.264 2.696-.792.61-.544.915-1.237.915-2.078v-.173c0-.924-.297-1.616-.89-2.078-.577-.462-1.336-.693-2.276-.693-.924 0-1.674.207-2.251.619-.561.396-1.023.923-1.385 1.583l-1.559-1.187c.215-.347.478-.685.792-1.015.313-.346.676-.651 1.088-.915.429-.264.916-.478 1.46-.643.56-.165 1.195-.247 1.904-.247.743 0 1.435.099 2.078.296.644.182 1.204.462 1.682.841.479.363.85.817 1.114 1.361.28.544.42 1.163.42 1.855 0 .561-.091 1.064-.272 1.509-.165.445-.404.833-.717 1.163-.297.33-.652.61-1.064.841s-.849.404-1.311.519v.099c.478.099.94.264 1.385.495.445.214.841.503 1.188.866.346.346.618.775.816 1.286.214.495.321 1.064.321 1.707 0 .742-.148 1.426-.445 2.053-.28.61-.684 1.138-1.212 1.583-.511.429-1.138.767-1.88 1.015-.726.247-1.534.371-2.424.371-.759 0-1.435-.083-2.029-.248-.577-.165-1.096-.387-1.558-.668-.445-.28-.841-.593-1.187-.94-.33-.346-.627-.709-.891-1.088l1.559-1.187c.23.346.47.659.717.94.247.28.528.527.841.742.33.198.701.354 1.113.47.412.115.891.173 1.435.173 1.22 0 2.152-.281 2.795-.841.66-.561.99-1.361.99-2.4v-.198c0-1.022-.322-1.814-.965-2.374-.627-.561-1.575-.841-2.845-.841h-2.053v-1.781z" fill="#fff"/><path d="m324.671 74.2104h98.9474v98.9474h-98.9474z" fill="#fff"/><path d="m344.769 136.053c0-3.858.76-7.678 2.236-11.242 1.477-3.564 3.64-6.802 6.368-9.53 2.728-2.727 5.966-4.891 9.53-6.367 3.564-1.477 7.384-2.236 11.241-2.236 3.858 0 7.678.759 11.242 2.236 3.564 1.476 6.802 3.64 9.53 6.367 2.727 2.728 4.891 5.966 6.367 9.53 1.477 3.564 2.236 7.384 2.236 11.242" stroke="#141414" stroke-width="3.09211"/><path d="m380.782 124.137 18.552-18.553" stroke="#141414" stroke-width="3.09211"/><path d="m463.816 74.2104h98.9474v98.9474h-98.9474z" fill="#fff"/><path d="m513.297 137.337c-1.715 0-3.189-.321-4.421-.964-1.233-.67-2.251-1.622-3.055-2.854-.804-1.233-1.394-2.747-1.769-4.543-.375-1.795-.563-3.845-.563-6.15 0-2.278.188-4.314.563-6.11.375-1.822.965-3.35 1.769-4.582.804-1.233 1.822-2.171 3.055-2.814 1.232-.67 2.706-1.005 4.421-1.005 1.716 0 3.189.335 4.422 1.005 1.233.643 2.251 1.581 3.055 2.814.804 1.232 1.394 2.76 1.769 4.582.375 1.796.563 3.832.563 6.11 0 2.305-.188 4.355-.563 6.15-.375 1.796-.965 3.31-1.769 4.543-.804 1.232-1.822 2.184-3.055 2.854-1.233.643-2.706.964-4.422.964zm0-2.934c1.126 0 2.091-.214 2.895-.643.804-.456 1.447-1.086 1.929-1.889.509-.804.884-1.769 1.126-2.895.241-1.152.361-2.438.361-3.859v-4.582c0-1.394-.12-2.667-.361-3.819-.242-1.152-.617-2.13-1.126-2.934-.482-.804-1.125-1.421-1.929-1.849-.804-.456-1.769-.684-2.895-.684-1.125 0-2.09.228-2.894.684-.804.428-1.46 1.045-1.969 1.849-.483.804-.845 1.782-1.086 2.934s-.362 2.425-.362 3.819v4.582c0 1.421.121 2.707.362 3.859.241 1.126.603 2.091 1.086 2.895.509.803 1.165 1.433 1.969 1.889.804.429 1.769.643 2.894.643zm0-9.205c-.937 0-1.594-.188-1.969-.563-.349-.375-.523-.831-.523-1.367v-.884c0-.536.174-.992.523-1.367.375-.375 1.032-.563 1.969-.563.938 0 1.582.188 1.93.563.375.375.563.831.563 1.367v.884c0 .536-.188.992-.563 1.367-.348.375-.992.563-1.93.563z" fill="#141414"/><path d="m525.658 103.585 9.277 18.553-9.277 18.553" stroke="#141414" stroke-width="3.09211"/><path d="m496.283 105.131v34.014" stroke="#141414" stroke-width="3.09211"/><path d="m881.25 74.2104h98.9474v98.9474h-98.9474z" fill="#fff"/><path d="m901.348 136.053c0-3.858.76-7.678 2.237-11.242 1.476-3.564 3.639-6.802 6.367-9.53 2.728-2.727 5.966-4.891 9.53-6.367 3.564-1.477 7.384-2.236 11.241-2.236 3.858 0 7.678.759 11.242 2.236 3.564 1.476 6.802 3.64 9.53 6.367 2.727 2.728 4.891 5.966 6.367 9.53 1.477 3.564 2.236 7.384 2.236 11.242" stroke="#141414" stroke-width="3.09211"/><path d="m937.361 124.137 18.553-18.553" stroke="#141414" stroke-width="3.09211"/><path d="m1020.39 74.2104h98.9474v98.9474h-98.9474z" fill="#fff"/><path d="m1069.88 137.337c-1.72 0-3.19-.321-4.43-.964-1.23-.67-2.25-1.622-3.05-2.854-.8-1.233-1.39-2.747-1.77-4.543-.37-1.795-.56-3.845-.56-6.15 0-2.278.19-4.314.56-6.11.38-1.822.97-3.35 1.77-4.582.8-1.233 1.82-2.171 3.05-2.814 1.24-.67 2.71-1.005 4.43-1.005 1.71 0 3.19.335 4.42 1.005 1.23.643 2.25 1.581 3.05 2.814.81 1.232 1.4 2.76 1.77 4.582.38 1.796.56 3.832.56 6.11 0 2.305-.18 4.355-.56 6.15-.37 1.796-.96 3.31-1.77 4.543-.8 1.232-1.82 2.184-3.05 2.854-1.23.643-2.71.964-4.42.964zm0-2.934c1.12 0 2.09-.214 2.89-.643.8-.456 1.45-1.086 1.93-1.889.51-.804.88-1.769 1.13-2.895.24-1.152.36-2.438.36-3.859v-4.582c0-1.394-.12-2.667-.36-3.819-.25-1.152-.62-2.13-1.13-2.934-.48-.804-1.13-1.421-1.93-1.849-.8-.456-1.77-.684-2.89-.684-1.13 0-2.09.228-2.9.684-.8.428-1.46 1.045-1.97 1.849-.48.804-.84 1.782-1.08 2.934s-.36 2.425-.36 3.819v4.582c0 1.421.12 2.707.36 3.859.24 1.126.6 2.091 1.08 2.895.51.803 1.17 1.433 1.97 1.889.81.429 1.77.643 2.9.643zm0-9.205c-.94 0-1.6-.188-1.97-.563-.35-.375-.53-.831-.53-1.367v-.884c0-.536.18-.992.53-1.367.37-.375 1.03-.563 1.97-.563.93 0 1.58.188 1.93.563.37.375.56.831.56 1.367v.884c0 .536-.19.992-.56 1.367-.35.375-1 .563-1.93.563z" fill="#141414"/><path d="m1082.24 103.585 9.27 18.553-9.27 18.553" stroke="#141414" stroke-width="3.09211"/><path d="m1052.86 105.131v34.014" stroke="#141414" stroke-width="3.09211"/><path d="m73.1389 136.571h-.1608c-1.3399 2.572-3.4704 3.859-6.3914 3.859-2.5458 0-4.5423-.952-5.9894-2.854-1.4203-1.903-2.1305-4.569-2.1305-8 0-3.43.7102-6.096 2.1305-7.999 1.4471-1.903 3.4436-2.854 5.9894-2.854 2.921 0 5.0515 1.286 6.3914 3.859h.1608v-3.377h3.2158v28.782h-3.2158zm-5.3061 1.005c.7236 0 1.4069-.094 2.0501-.282.6432-.187 1.2059-.455 1.6883-.804.4823-.375.8575-.817 1.1255-1.326.2948-.536.4422-1.153.4422-1.849v-7.477c0-.697-.1474-1.3-.4422-1.809-.268-.536-.6432-.978-1.1255-1.326-.4824-.376-1.0451-.657-1.6883-.845-.6432-.187-1.3265-.281-2.0501-.281-1.8759 0-3.3364.576-4.3815 1.729-1.0183 1.125-1.5275 2.626-1.5275 4.502v3.537c0 1.876.5092 3.39 1.5275 4.542 1.0451 1.126 2.5056 1.689 4.3815 1.689zm33.9112 2.371h-18.7323v-3.457l9.366-8.441c1.3667-1.233 2.4923-2.492 3.3766-3.779.8843-1.313 1.3265-2.693 1.3265-4.14v-.482c0-1.689-.4422-2.988-1.3265-3.9-.8843-.937-2.1975-1.406-3.9393-1.406-1.7151 0-3.0416.442-3.9796 1.326-.9111.858-1.5945 2.01-2.0501 3.457l-3.0148-1.125c.268-.831.6298-1.635 1.0854-2.412.4823-.804 1.0853-1.514 1.8089-2.131.7235-.616 1.5945-1.112 2.6128-1.487 1.0451-.375 2.251-.563 3.6177-.563 1.3936 0 2.6263.201 3.6982.603 1.0987.402 2.0099.965 2.7334 1.688.7504.724 1.3131 1.581 1.6881 2.573.402.992.603 2.077.603 3.256 0 1.072-.161 2.077-.482 3.015-.295.938-.7237 1.835-1.2865 2.693-.536.858-1.1925 1.702-1.9697 2.532-.7503.804-1.5945 1.608-2.5324 2.412l-7.8385 6.834h15.2351z" fill="#fff"/><path d="m68.8378 353.785c-1.5007 0-2.8407-.254-4.0198-.764-1.1523-.536-2.1304-1.273-2.9344-2.211-.8039-.937-1.4203-2.076-1.8491-3.416-.4019-1.34-.6029-2.827-.6029-4.462s.2144-3.122.6431-4.462c.4288-1.34 1.0452-2.479 1.8491-3.417.804-.965 1.7821-1.702 2.9344-2.211s2.4655-.763 3.9394-.763c2.0098 0 3.6445.442 4.904 1.326 1.2596.884 2.1841 2.037 2.7737 3.457l-2.5727 1.367c-.3751-1.072-1.0049-1.903-1.8892-2.493-.8576-.589-1.9295-.884-3.2158-.884-.938 0-1.7821.161-2.5325.483-.7235.294-1.3399.723-1.8491 1.286-.5091.563-.8977 1.233-1.1657 2.01-.2412.777-.3618 1.621-.3618 2.532v3.537c0 .912.1206 1.756.3618 2.533.268.777.6566 1.447 1.1657 2.01.5092.563 1.139 1.005 1.8893 1.326.7504.295 1.6079.442 2.5727.442 1.3935 0 2.5458-.321 3.4569-.964.9112-.643 1.6347-1.528 2.1707-2.653l2.2912 1.567c-.6163 1.394-1.5811 2.546-2.8942 3.457-1.2863.912-2.9746 1.367-5.0648 1.367zm32.9062-.482h-18.7323v-3.457l9.366-8.442c1.3667-1.232 2.4923-2.492 3.3766-3.778.8843-1.313 1.3265-2.693 1.3265-4.141v-.482c0-1.688-.4422-2.988-1.3265-3.899-.8843-.938-2.1975-1.407-3.9393-1.407-1.7151 0-3.0416.442-3.9796 1.327-.9111.857-1.5945 2.009-2.0501 3.456l-3.0148-1.125c.268-.831.6298-1.635 1.0854-2.412.4823-.804 1.0853-1.514 1.8089-2.13.7235-.617 1.5945-1.112 2.6128-1.488 1.0451-.375 2.251-.562 3.6177-.562 1.3936 0 2.6263.201 3.6982.603 1.0987.402 2.0099.964 2.7334 1.688.7504.723 1.3131 1.581 1.6881 2.572.402.992.603 2.077.603 3.256 0 1.072-.161 2.077-.482 3.015-.295.938-.7237 1.836-1.2865 2.693-.536.858-1.1925 1.702-1.9697 2.533-.7503.804-1.5945 1.608-2.5324 2.412l-7.8385 6.833h15.2351z" fill="#fff"/><path d="m627.734 412.535c-1.715 0-3.189-.321-4.421-.965-1.233-.67-2.252-1.621-3.055-2.854-.804-1.232-1.394-2.746-1.769-4.542-.375-1.795-.563-3.845-.563-6.15 0-2.278.188-4.315.563-6.11.375-1.822.965-3.35 1.769-4.583.803-1.232 1.822-2.17 3.055-2.813 1.232-.67 2.706-1.005 4.421-1.005s3.189.335 4.422 1.005c1.233.643 2.251 1.581 3.055 2.813.804 1.233 1.393 2.761 1.769 4.583.375 1.795.562 3.832.562 6.11 0 2.305-.187 4.355-.562 6.15-.376 1.796-.965 3.31-1.769 4.542-.804 1.233-1.822 2.184-3.055 2.854-1.233.644-2.707.965-4.422.965zm0-2.934c1.126 0 2.091-.215 2.894-.643.804-.456 1.448-1.086 1.93-1.89.509-.804.884-1.768 1.125-2.894.242-1.152.362-2.439.362-3.859v-4.582c0-1.394-.12-2.667-.362-3.819-.241-1.152-.616-2.131-1.125-2.935-.482-.804-1.126-1.42-1.93-1.849-.803-.455-1.768-.683-2.894-.683-1.125 0-2.09.228-2.894.683-.804.429-1.46 1.045-1.97 1.849-.482.804-.844 1.783-1.085 2.935s-.362 2.425-.362 3.819v4.582c0 1.42.121 2.707.362 3.859.241 1.126.603 2.09 1.085 2.894.51.804 1.166 1.434 1.97 1.89.804.428 1.769.643 2.894.643zm0-9.206c-.938 0-1.594-.187-1.969-.562-.349-.375-.523-.831-.523-1.367v-.884c0-.536.174-.992.523-1.367.375-.375 1.031-.563 1.969-.563s1.581.188 1.93.563c.375.375.562.831.562 1.367v.884c0 .536-.187.992-.562 1.367-.349.375-.992.562-1.93.562zm14.496 11.658 7.718-10.532-7.517-10.21h3.859l3.135 4.381 2.492 3.457h.161l2.412-3.457 3.095-4.381h3.698l-7.597 10.17 7.798 10.572h-3.859l-3.497-4.864-2.371-3.296h-.161l-2.291 3.296-3.377 4.864zm33.71.482c-1.715 0-3.189-.321-4.422-.965-1.233-.67-2.251-1.621-3.055-2.854-.804-1.232-1.394-2.746-1.769-4.542-.375-1.795-.562-3.845-.562-6.15 0-2.278.187-4.315.562-6.11.375-1.822.965-3.35 1.769-4.583.804-1.232 1.822-2.17 3.055-2.813 1.233-.67 2.707-1.005 4.422-1.005s3.189.335 4.421 1.005c1.233.643 2.251 1.581 3.055 2.813.804 1.233 1.394 2.761 1.769 4.583.375 1.795.563 3.832.563 6.11 0 2.305-.188 4.355-.563 6.15-.375 1.796-.965 3.31-1.769 4.542-.804 1.233-1.822 2.184-3.055 2.854-1.232.644-2.706.965-4.421.965zm0-2.934c1.125 0 2.09-.215 2.894-.643.804-.456 1.447-1.086 1.929-1.89.51-.804.885-1.768 1.126-2.894.241-1.152.362-2.439.362-3.859v-4.582c0-1.394-.121-2.667-.362-3.819s-.616-2.131-1.126-2.935c-.482-.804-1.125-1.42-1.929-1.849-.804-.455-1.769-.683-2.894-.683-1.126 0-2.091.228-2.895.683-.803.429-1.46 1.045-1.969 1.849-.483.804-.844 1.783-1.086 2.935-.241 1.152-.361 2.425-.361 3.819v4.582c0 1.42.12 2.707.361 3.859.242 1.126.603 2.09 1.086 2.894.509.804 1.166 1.434 1.969 1.89.804.428 1.769.643 2.895.643zm0-9.206c-.938 0-1.595-.187-1.97-.562-.348-.375-.523-.831-.523-1.367v-.884c0-.536.175-.992.523-1.367.375-.375 1.032-.563 1.97-.563s1.581.188 1.929.563c.375.375.563.831.563 1.367v.884c0 .536-.188.992-.563 1.367-.348.375-.991.562-1.929.562z" fill="#fff"/><path d="m411.39 319.772c-1.715 0-3.189-.322-4.422-.965-1.233-.67-2.251-1.621-3.055-2.854s-1.394-2.747-1.769-4.542c-.375-1.796-.562-3.846-.562-6.15 0-2.278.187-4.315.562-6.11.375-1.823.965-3.35 1.769-4.583s1.822-2.17 3.055-2.814c1.233-.67 2.707-1.005 4.422-1.005s3.189.335 4.421 1.005c1.233.644 2.251 1.581 3.055 2.814s1.394 2.76 1.769 4.583c.375 1.795.563 3.832.563 6.11 0 2.304-.188 4.354-.563 6.15-.375 1.795-.965 3.309-1.769 4.542s-1.822 2.184-3.055 2.854c-1.232.643-2.706.965-4.421.965zm0-2.934c1.125 0 2.09-.215 2.894-.644.804-.455 1.447-1.085 1.929-1.889.51-.804.885-1.769 1.126-2.894.241-1.152.362-2.439.362-3.859v-4.583c0-1.393-.121-2.666-.362-3.818-.241-1.153-.616-2.131-1.126-2.935-.482-.804-1.125-1.42-1.929-1.849-.804-.455-1.769-.683-2.894-.683-1.126 0-2.091.228-2.895.683-.803.429-1.46 1.045-1.969 1.849-.483.804-.844 1.782-1.086 2.935-.241 1.152-.361 2.425-.361 3.818v4.583c0 1.42.12 2.707.361 3.859.242 1.125.603 2.09 1.086 2.894.509.804 1.166 1.434 1.969 1.889.804.429 1.769.644 2.895.644zm0-9.206c-.938 0-1.595-.187-1.97-.562-.348-.376-.523-.831-.523-1.367v-.885c0-.535.175-.991.523-1.366.375-.375 1.032-.563 1.97-.563s1.581.188 1.929.563c.375.375.563.831.563 1.366v.885c0 .536-.188.991-.563 1.367-.348.375-.991.562-1.929.562z" fill="#fff"/><path d="m959.326 319.29v-2.935h8.039v-22.631h-.281l-7.075 6.592-1.969-2.13 7.436-6.954h5.266v25.123h7.396v2.935z" fill="#fff"/><path d="m167.113 319.772c-1.634 0-3.068-.201-4.301-.603-1.233-.429-2.264-1.005-3.095-1.729-.804-.723-1.42-1.581-1.849-2.572-.402-.992-.603-2.064-.603-3.216 0-1.929.523-3.457 1.568-4.582 1.045-1.126 2.425-1.917 4.14-2.372v-.322c-1.501-.509-2.693-1.326-3.578-2.452-.857-1.152-1.286-2.532-1.286-4.14 0-2.144.791-3.846 2.372-5.105 1.581-1.286 3.792-1.93 6.632-1.93 2.841 0 5.052.644 6.633 1.93 1.581 1.259 2.372 2.961 2.372 5.105 0 1.608-.443 2.988-1.327 4.14-.858 1.126-2.037 1.943-3.537 2.452v.322c1.715.455 3.095 1.246 4.14 2.372 1.045 1.125 1.568 2.653 1.568 4.582 0 1.152-.215 2.224-.643 3.216-.402.991-1.019 1.849-1.85 2.572-.83.724-1.862 1.3-3.095 1.729-1.206.402-2.626.603-4.261.603zm0-2.854c1.983 0 3.538-.442 4.663-1.327 1.126-.884 1.689-2.13 1.689-3.738v-.884c0-1.608-.563-2.854-1.689-3.739-1.099-.884-2.653-1.326-4.663-1.326s-3.577.442-4.703 1.326c-1.098.885-1.648 2.131-1.648 3.739v.884c0 1.608.563 2.854 1.688 3.738 1.126.885 2.68 1.327 4.663 1.327zm0-13.748c1.823 0 3.203-.388 4.141-1.165.964-.777 1.447-1.89 1.447-3.337v-.562c0-1.448-.496-2.56-1.488-3.337-.964-.777-2.331-1.166-4.1-1.166-1.768 0-3.148.389-4.14 1.166-.965.777-1.447 1.889-1.447 3.337v.562c0 1.447.469 2.56 1.407 3.337.965.777 2.358 1.165 4.18 1.165z" fill="#fff"/><path d="m766.879 412.535c-1.715 0-3.189-.321-4.422-.965-1.233-.67-2.251-1.621-3.055-2.854-.804-1.232-1.393-2.746-1.769-4.542-.375-1.795-.562-3.845-.562-6.15 0-2.278.187-4.315.562-6.11.376-1.822.965-3.35 1.769-4.583.804-1.232 1.822-2.17 3.055-2.813 1.233-.67 2.707-1.005 4.422-1.005s3.189.335 4.421 1.005c1.233.643 2.252 1.581 3.055 2.813.804 1.233 1.394 2.761 1.769 4.583.375 1.795.563 3.832.563 6.11 0 2.305-.188 4.355-.563 6.15-.375 1.796-.965 3.31-1.769 4.542-.803 1.233-1.822 2.184-3.055 2.854-1.232.644-2.706.965-4.421.965zm0-2.934c1.125 0 2.09-.215 2.894-.643.804-.456 1.447-1.086 1.929-1.89.51-.804.885-1.768 1.126-2.894.241-1.152.362-2.439.362-3.859v-4.582c0-1.394-.121-2.667-.362-3.819s-.616-2.131-1.126-2.935c-.482-.804-1.125-1.42-1.929-1.849-.804-.455-1.769-.683-2.894-.683-1.126 0-2.09.228-2.894.683-.804.429-1.461 1.045-1.97 1.849-.482.804-.844 1.783-1.085 2.935-.242 1.152-.362 2.425-.362 3.819v4.582c0 1.42.12 2.707.362 3.859.241 1.126.603 2.09 1.085 2.894.509.804 1.166 1.434 1.97 1.89.804.428 1.768.643 2.894.643zm0-9.206c-.938 0-1.595-.187-1.97-.562-.348-.375-.522-.831-.522-1.367v-.884c0-.536.174-.992.522-1.367.375-.375 1.032-.563 1.97-.563s1.581.188 1.929.563c.375.375.563.831.563 1.367v.884c0 .536-.188.992-.563 1.367-.348.375-.991.562-1.929.562zm14.495 11.658 7.718-10.532-7.517-10.21h3.859l3.136 4.381 2.492 3.457h.161l2.412-3.457 3.095-4.381h3.698l-7.597 10.17 7.798 10.572h-3.859l-3.497-4.864-2.372-3.296h-.161l-2.291 3.296-3.377 4.864zm25.068 0v-2.935h8.039v-22.631h-.281l-7.075 6.593-1.97-2.131 7.437-6.954h5.266v25.123h7.396v2.935z" fill="#fff"/><g stroke-width="3.09211"><path d="m145.329 336.048h980.201" stroke="#8c8c8c"/><path d="m145.329 344.216h980.201" stroke="#8c8c8c"/><path d="m1125.53 336.048h142.23" stroke="#8c8c8c" stroke-dasharray="12.37 12.37"/><path d="m1125.53 344.216h142.23" stroke="#8c8c8c" stroke-dasharray="12.37 12.37"/><path d="m145.329 122.138h40.197" stroke="#fff"/><path d="m284.474 122.138h40.197" stroke="#fff"/><path d="m423.618 122.138h40.198" stroke="#fff"/><path d="m562.763 122.138h40.198" stroke="#fff"/><path d="m701.908 122.138h40.197" stroke="#fff"/><path d="m841.053 122.138h40.197" stroke="#fff"/><path d="m980.197 122.138h40.193" stroke="#fff"/><path d="m1119.34 122.138h139.15" stroke="#fff" stroke-dasharray="12.37 12.37"/><path d="m647.796 318.487v-129.869" stroke="#8c8c8c"/><path d="m657.073 318.487v-129.869" stroke="#8c8c8c"/><path d="m786.941 318.487v-129.869" stroke="#8c8c8c"/><path d="m796.217 318.487v-129.869" stroke="#8c8c8c"/><path d="m193.109 312.961-24.737 52.566" stroke="#8c8c8c"/><path d="m369.507 318.487v-129.869" stroke="#8c8c8c"/><path d="m378.783 318.487v-129.869" stroke="#8c8c8c"/><path d="m355.592 306.119 18.553 18.552 18.553-18.552" stroke="#8c8c8c"/><path d="m926.085 318.487v-129.869" stroke="#8c8c8c"/><path d="m935.362 318.487v-129.869" stroke="#8c8c8c"/><path d="m912.171 306.119 18.553 18.552 18.552-18.552" stroke="#8c8c8c"/></g></svg>