<svg fill="none" height="809" viewBox="0 0 500 809" width="500" xmlns="http://www.w3.org/2000/svg"><g fill="#141414"><circle cx="186.459" cy="114.459" r="59.4595"/><circle cx="186.459" cy="241.487" r="59.4595"/><circle cx="186.459" cy="368.513" r="59.4595"/><circle cx="186.459" cy="495.541" r="59.4595"/><circle cx="313.487" cy="114.459" r="59.4595"/><circle cx="313.487" cy="241.487" r="59.4595"/><circle cx="313.487" cy="368.513" r="59.4595"/><circle cx="313.487" cy="495.541" r="59.4595"/></g><path d="m185.728 142.864c-3.072 0-5.712-.576-7.92-1.728-2.208-1.2-4.032-2.904-5.472-5.112s-2.496-4.92-3.168-8.136-1.008-6.888-1.008-11.016c0-4.08.336-7.728 1.008-10.944.672-3.264 1.728-6 3.168-8.208s3.264-3.888 5.472-5.04c2.208-1.2 4.848-1.8 7.92-1.8s5.712.6 7.92 1.8c2.208 1.152 4.032 2.832 5.472 5.04s2.496 4.944 3.168 8.208c.672 3.216 1.008 6.864 1.008 10.944 0 4.128-.336 7.8-1.008 11.016s-1.728 5.928-3.168 8.136-3.264 3.912-5.472 5.112c-2.208 1.152-4.848 1.728-7.92 1.728zm0-5.256c2.016 0 3.744-.384 5.184-1.152 1.44-.816 2.592-1.944 3.456-3.384.912-1.44 1.584-3.168 2.016-5.184.432-2.064.648-4.368.648-6.912v-8.208c0-2.496-.216-4.776-.648-6.84s-1.104-3.816-2.016-5.256c-.864-1.44-2.016-2.544-3.456-3.312-1.44-.816-3.168-1.224-5.184-1.224s-3.744.408-5.184 1.224c-1.44.768-2.616 1.872-3.528 3.312-.864 1.44-1.512 3.192-1.944 5.256s-.648 4.344-.648 6.84v8.208c0 2.544.216 4.848.648 6.912.432 2.016 1.08 3.744 1.944 5.184.912 1.44 2.088 2.568 3.528 3.384 1.44.768 3.168 1.152 5.184 1.152zm0-16.488c-1.68 0-2.856-.336-3.528-1.008-.624-.672-.936-1.488-.936-2.448v-1.584c0-.96.312-1.776.936-2.448.672-.672 1.848-1.008 3.528-1.008s2.832.336 3.456 1.008c.672.672 1.008 1.488 1.008 2.448v1.584c0 .96-.336 1.776-1.008 2.448-.624.672-1.776 1.008-3.456 1.008zm114.092 20.88v-5.256h14.4v-40.536h-.504l-12.672 11.808-3.528-3.816 13.32-12.456h9.432v45h13.248v5.256zm-97.028 124h-33.552v-6.192l16.776-15.12c2.448-2.208 4.464-4.464 6.048-6.768 1.584-2.352 2.376-4.824 2.376-7.416v-.864c0-3.024-.792-5.352-2.376-6.984-1.584-1.68-3.936-2.52-7.056-2.52-3.072 0-5.448.792-7.128 2.376-1.632 1.536-2.856 3.6-3.672 6.192l-5.4-2.016c.48-1.488 1.128-2.928 1.944-4.32.864-1.44 1.944-2.712 3.24-3.816s2.856-1.992 4.68-2.664c1.872-.672 4.032-1.008 6.48-1.008 2.496 0 4.704.36 6.624 1.08 1.968.72 3.6 1.728 4.896 3.024 1.344 1.296 2.352 2.832 3.024 4.608.72 1.776 1.08 3.72 1.08 5.832 0 1.92-.288 3.72-.864 5.4-.528 1.68-1.296 3.288-2.304 4.824-.96 1.536-2.136 3.048-3.528 4.536-1.344 1.44-2.856 2.88-4.536 4.32l-14.04 12.24h27.288zm110.348-28.944c3.504 0 6.12-.768 7.848-2.304 1.776-1.584 2.664-3.6 2.664-6.048v-.504c0-2.688-.864-4.704-2.592-6.048-1.68-1.344-3.888-2.016-6.624-2.016-2.688 0-4.872.6-6.552 1.8-1.632 1.152-2.976 2.688-4.032 4.608l-4.536-3.456c.624-1.008 1.392-1.992 2.304-2.952.912-1.008 1.968-1.896 3.168-2.664 1.248-.768 2.664-1.392 4.248-1.872 1.632-.48 3.48-.72 5.544-.72 2.16 0 4.176.288 6.048.864 1.872.528 3.504 1.344 4.896 2.448 1.392 1.056 2.472 2.376 3.24 3.96.816 1.584 1.224 3.384 1.224 5.4 0 1.632-.264 3.096-.792 4.392-.48 1.296-1.176 2.424-2.088 3.384-.864.96-1.896 1.776-3.096 2.448s-2.472 1.176-3.816 1.512v.288c1.392.288 2.736.768 4.032 1.44 1.296.624 2.448 1.464 3.456 2.52 1.008 1.008 1.8 2.256 2.376 3.744.624 1.44.936 3.096.936 4.968 0 2.16-.432 4.152-1.296 5.976-.816 1.776-1.992 3.312-3.528 4.608-1.488 1.248-3.312 2.232-5.472 2.952-2.112.72-4.464 1.08-7.056 1.08-2.208 0-4.176-.24-5.904-.72-1.68-.48-3.192-1.128-4.536-1.944-1.296-.816-2.448-1.728-3.456-2.736-.96-1.008-1.824-2.064-2.592-3.168l4.536-3.456c.672 1.008 1.368 1.92 2.088 2.736s1.536 1.536 2.448 2.16c.96.576 2.04 1.032 3.24 1.368s2.592.504 4.176.504c3.552 0 6.264-.816 8.136-2.448 1.92-1.632 2.88-3.96 2.88-6.984v-.576c0-2.976-.936-5.28-2.808-6.912-1.824-1.632-4.584-2.448-8.28-2.448h-5.976v-5.184zm-121.796 152.944v-9.864h-24.768v-5.328l21.744-35.064h8.784v35.424h7.488v4.968h-7.488v9.864zm-19.368-14.832h19.368v-30.744h-.288zm157.796-30.168h-22.464l-1.44 19.224h.504c1.248-1.68 2.64-3 4.176-3.96 1.536-1.008 3.648-1.512 6.336-1.512 2.208 0 4.224.36 6.048 1.08 1.872.672 3.48 1.68 4.824 3.024s2.4 2.976 3.168 4.896c.768 1.872 1.152 4.032 1.152 6.48s-.384 4.704-1.152 6.768c-.768 2.016-1.896 3.768-3.384 5.256-1.488 1.44-3.288 2.568-5.4 3.384s-4.512 1.224-7.2 1.224c-2.112 0-4.008-.24-5.688-.72-1.632-.48-3.096-1.128-4.392-1.944-1.248-.816-2.352-1.728-3.312-2.736s-1.824-2.064-2.592-3.168l4.536-3.456c.672 1.008 1.344 1.92 2.016 2.736.72.816 1.536 1.536 2.448 2.16.912.576 1.944 1.032 3.096 1.368s2.496.504 4.032.504c3.456 0 6.096-.936 7.92-2.808 1.872-1.872 2.808-4.464 2.808-7.776v-.576c0-3.312-.936-5.904-2.808-7.776s-4.56-2.808-8.064-2.808c-2.4 0-4.272.408-5.616 1.224-1.296.816-2.496 1.824-3.6 3.024l-5.112-.72 1.8-27.648h27.36zm-143.972 169.864c-2.64 0-5.016-.432-7.128-1.296-2.112-.912-3.912-2.184-5.4-3.816-1.44-1.68-2.568-3.72-3.384-6.12-.768-2.4-1.152-5.088-1.152-8.064 0-3.744.552-7.248 1.656-10.512 1.152-3.312 2.592-6.312 4.32-9 1.776-2.736 3.744-5.136 5.904-7.2 2.16-2.112 4.272-3.816 6.336-5.112h7.776c-2.736 1.968-5.184 3.888-7.344 5.76-2.112 1.872-3.984 3.84-5.616 5.904-1.632 2.016-3 4.2-4.104 6.552-1.104 2.304-2.016 4.92-2.736 7.848l.36.144c1.2-2.064 2.784-3.768 4.752-5.112 1.968-1.392 4.512-2.088 7.632-2.088 2.208 0 4.224.36 6.048 1.08s3.408 1.752 4.752 3.096 2.376 2.976 3.096 4.896c.768 1.92 1.152 4.056 1.152 6.408 0 2.448-.408 4.704-1.224 6.768-.816 2.016-1.968 3.768-3.456 5.256-1.44 1.44-3.216 2.568-5.328 3.384-2.064.816-4.368 1.224-6.912 1.224zm-.072-5.112c3.456 0 6.12-.936 7.992-2.808 1.92-1.872 2.88-4.512 2.88-7.92v-.576c0-3.408-.96-6.048-2.88-7.92-1.872-1.872-4.536-2.808-7.992-2.808s-6.144.936-8.064 2.808c-1.872 1.872-2.808 4.512-2.808 7.92v.576c0 3.408.936 6.048 2.808 7.92 1.92 1.872 4.608 2.808 8.064 2.808zm120.428 4.248 19.656-45.072h-22.032v9.36h-5.4v-14.544h33.552v5.328l-19.296 44.928z" fill="#fff" opacity=".5"/><path d="m98.9125 692.864c-3.072 0-5.712-.576-7.92-1.728-2.208-1.2-4.032-2.904-5.472-5.112s-2.496-4.92-3.168-8.136-1.008-6.888-1.008-11.016c0-4.08.336-7.728 1.008-10.944.672-3.264 1.728-6 3.168-8.208s3.264-3.888 5.472-5.04c2.208-1.2 4.848-1.8 7.92-1.8 3.0725 0 5.7125.6 7.9205 1.8 2.208 1.152 4.032 2.832 5.472 5.04s2.496 4.944 3.168 8.208c.672 3.216 1.008 6.864 1.008 10.944 0 4.128-.336 7.8-1.008 11.016s-1.728 5.928-3.168 8.136-3.264 3.912-5.472 5.112c-2.208 1.152-4.848 1.728-7.9205 1.728zm0-5.256c2.0165 0 3.7445-.384 5.1845-1.152 1.44-.816 2.592-1.944 3.456-3.384.912-1.44 1.584-3.168 2.016-5.184.432-2.064.648-4.368.648-6.912v-8.208c0-2.496-.216-4.776-.648-6.84s-1.104-3.816-2.016-5.256c-.864-1.44-2.016-2.544-3.456-3.312-1.44-.816-3.168-1.224-5.1845-1.224-2.016 0-3.744.408-5.184 1.224-1.44.768-2.616 1.872-3.528 3.312-.864 1.44-1.512 3.192-1.944 5.256s-.648 4.344-.648 6.84v8.208c0 2.544.216 4.848.648 6.912.432 2.016 1.08 3.744 1.944 5.184.912 1.44 2.088 2.568 3.528 3.384 1.44.768 3.168 1.152 5.184 1.152zm0-16.488c-1.68 0-2.856-.336-3.528-1.008-.624-.672-.936-1.488-.936-2.448v-1.584c0-.96.312-1.776.936-2.448.672-.672 1.848-1.008 3.528-1.008 1.6805 0 2.8325.336 3.4565 1.008.672.672 1.008 1.488 1.008 2.448v1.584c0 .96-.336 1.776-1.008 2.448-.624.672-1.776 1.008-3.4565 1.008zm43.1715 21.744c-3.072 0-5.712-.576-7.92-1.728-2.208-1.2-4.032-2.904-5.472-5.112s-2.496-4.92-3.168-8.136-1.008-6.888-1.008-11.016c0-4.08.336-7.728 1.008-10.944.672-3.264 1.728-6 3.168-8.208s3.264-3.888 5.472-5.04c2.208-1.2 4.848-1.8 7.92-1.8s5.712.6 7.92 1.8c2.208 1.152 4.032 2.832 5.472 5.04s2.496 4.944 3.168 8.208c.672 3.216 1.008 6.864 1.008 10.944 0 4.128-.336 7.8-1.008 11.016s-1.728 5.928-3.168 8.136-3.264 3.912-5.472 5.112c-2.208 1.152-4.848 1.728-7.92 1.728zm0-5.256c2.016 0 3.744-.384 5.184-1.152 1.44-.816 2.592-1.944 3.456-3.384.912-1.44 1.584-3.168 2.016-5.184.432-2.064.648-4.368.648-6.912v-8.208c0-2.496-.216-4.776-.648-6.84s-1.104-3.816-2.016-5.256c-.864-1.44-2.016-2.544-3.456-3.312-1.44-.816-3.168-1.224-5.184-1.224s-3.744.408-5.184 1.224c-1.44.768-2.616 1.872-3.528 3.312-.864 1.44-1.512 3.192-1.944 5.256s-.648 4.344-.648 6.84v8.208c0 2.544.216 4.848.648 6.912.432 2.016 1.08 3.744 1.944 5.184.912 1.44 2.088 2.568 3.528 3.384 1.44.768 3.168 1.152 5.184 1.152zm0-16.488c-1.68 0-2.856-.336-3.528-1.008-.624-.672-.936-1.488-.936-2.448v-1.584c0-.96.312-1.776.936-2.448.672-.672 1.848-1.008 3.528-1.008s2.832.336 3.456 1.008c.672.672 1.008 1.488 1.008 2.448v1.584c0 .96-.336 1.776-1.008 2.448-.624.672-1.776 1.008-3.456 1.008zm43.172 21.744c-3.072 0-5.712-.576-7.92-1.728-2.208-1.2-4.032-2.904-5.472-5.112s-2.496-4.92-3.168-8.136-1.008-6.888-1.008-11.016c0-4.08.336-7.728 1.008-10.944.672-3.264 1.728-6 3.168-8.208s3.264-3.888 5.472-5.04c2.208-1.2 4.848-1.8 7.92-1.8s5.712.6 7.92 1.8c2.208 1.152 4.032 2.832 5.472 5.04s2.496 4.944 3.168 8.208c.672 3.216 1.008 6.864 1.008 10.944 0 4.128-.336 7.8-1.008 11.016s-1.728 5.928-3.168 8.136-3.264 3.912-5.472 5.112c-2.208 1.152-4.848 1.728-7.92 1.728zm0-5.256c2.016 0 3.744-.384 5.184-1.152 1.44-.816 2.592-1.944 3.456-3.384.912-1.44 1.584-3.168 2.016-5.184.432-2.064.648-4.368.648-6.912v-8.208c0-2.496-.216-4.776-.648-6.84s-1.104-3.816-2.016-5.256c-.864-1.44-2.016-2.544-3.456-3.312-1.44-.816-3.168-1.224-5.184-1.224s-3.744.408-5.184 1.224c-1.44.768-2.616 1.872-3.528 3.312-.864 1.44-1.512 3.192-1.944 5.256s-.648 4.344-.648 6.84v8.208c0 2.544.216 4.848.648 6.912.432 2.016 1.08 3.744 1.944 5.184.912 1.44 2.088 2.568 3.528 3.384 1.44.768 3.168 1.152 5.184 1.152zm0-16.488c-1.68 0-2.856-.336-3.528-1.008-.624-.672-.936-1.488-.936-2.448v-1.584c0-.96.312-1.776.936-2.448.672-.672 1.848-1.008 3.528-1.008s2.832.336 3.456 1.008c.672.672 1.008 1.488 1.008 2.448v1.584c0 .96-.336 1.776-1.008 2.448-.624.672-1.776 1.008-3.456 1.008zm43.172 21.744c-3.072 0-5.712-.576-7.92-1.728-2.208-1.2-4.032-2.904-5.472-5.112s-2.496-4.92-3.168-8.136-1.008-6.888-1.008-11.016c0-4.08.336-7.728 1.008-10.944.672-3.264 1.728-6 3.168-8.208s3.264-3.888 5.472-5.04c2.208-1.2 4.848-1.8 7.92-1.8s5.712.6 7.92 1.8c2.208 1.152 4.032 2.832 5.472 5.04s2.496 4.944 3.168 8.208c.672 3.216 1.008 6.864 1.008 10.944 0 4.128-.336 7.8-1.008 11.016s-1.728 5.928-3.168 8.136-3.264 3.912-5.472 5.112c-2.208 1.152-4.848 1.728-7.92 1.728zm0-5.256c2.016 0 3.744-.384 5.184-1.152 1.44-.816 2.592-1.944 3.456-3.384.912-1.44 1.584-3.168 2.016-5.184.432-2.064.648-4.368.648-6.912v-8.208c0-2.496-.216-4.776-.648-6.84s-1.104-3.816-2.016-5.256c-.864-1.44-2.016-2.544-3.456-3.312-1.44-.816-3.168-1.224-5.184-1.224s-3.744.408-5.184 1.224c-1.44.768-2.616 1.872-3.528 3.312-.864 1.44-1.512 3.192-1.944 5.256s-.648 4.344-.648 6.84v8.208c0 2.544.216 4.848.648 6.912.432 2.016 1.08 3.744 1.944 5.184.912 1.44 2.088 2.568 3.528 3.384 1.44.768 3.168 1.152 5.184 1.152zm0-16.488c-1.68 0-2.856-.336-3.528-1.008-.624-.672-.936-1.488-.936-2.448v-1.584c0-.96.312-1.776.936-2.448.672-.672 1.848-1.008 3.528-1.008s2.832.336 3.456 1.008c.672.672 1.008 1.488 1.008 2.448v1.584c0 .96-.336 1.776-1.008 2.448-.624.672-1.776 1.008-3.456 1.008zm43.172 21.744c-3.072 0-5.712-.576-7.92-1.728-2.208-1.2-4.032-2.904-5.472-5.112s-2.496-4.92-3.168-8.136-1.008-6.888-1.008-11.016c0-4.08.336-7.728 1.008-10.944.672-3.264 1.728-6 3.168-8.208s3.264-3.888 5.472-5.04c2.208-1.2 4.848-1.8 7.92-1.8s5.712.6 7.92 1.8c2.208 1.152 4.032 2.832 5.472 5.04s2.496 4.944 3.168 8.208c.672 3.216 1.008 6.864 1.008 10.944 0 4.128-.336 7.8-1.008 11.016s-1.728 5.928-3.168 8.136-3.264 3.912-5.472 5.112c-2.208 1.152-4.848 1.728-7.92 1.728zm0-5.256c2.016 0 3.744-.384 5.184-1.152 1.44-.816 2.592-1.944 3.456-3.384.912-1.44 1.584-3.168 2.016-5.184.432-2.064.648-4.368.648-6.912v-8.208c0-2.496-.216-4.776-.648-6.84s-1.104-3.816-2.016-5.256c-.864-1.44-2.016-2.544-3.456-3.312-1.44-.816-3.168-1.224-5.184-1.224s-3.744.408-5.184 1.224c-1.44.768-2.616 1.872-3.528 3.312-.864 1.44-1.512 3.192-1.944 5.256s-.648 4.344-.648 6.84v8.208c0 2.544.216 4.848.648 6.912.432 2.016 1.08 3.744 1.944 5.184.912 1.44 2.088 2.568 3.528 3.384 1.44.768 3.168 1.152 5.184 1.152zm0-16.488c-1.68 0-2.856-.336-3.528-1.008-.624-.672-.936-1.488-.936-2.448v-1.584c0-.96.312-1.776.936-2.448.672-.672 1.848-1.008 3.528-1.008s2.832.336 3.456 1.008c.672.672 1.008 1.488 1.008 2.448v1.584c0 .96-.336 1.776-1.008 2.448-.624.672-1.776 1.008-3.456 1.008zm43.172 21.744c-3.072 0-5.712-.576-7.92-1.728-2.208-1.2-4.032-2.904-5.472-5.112s-2.496-4.92-3.168-8.136-1.008-6.888-1.008-11.016c0-4.08.336-7.728 1.008-10.944.672-3.264 1.728-6 3.168-8.208s3.264-3.888 5.472-5.04c2.208-1.2 4.848-1.8 7.92-1.8s5.712.6 7.92 1.8c2.208 1.152 4.032 2.832 5.472 5.04s2.496 4.944 3.168 8.208c.672 3.216 1.008 6.864 1.008 10.944 0 4.128-.336 7.8-1.008 11.016s-1.728 5.928-3.168 8.136-3.264 3.912-5.472 5.112c-2.208 1.152-4.848 1.728-7.92 1.728zm0-5.256c2.016 0 3.744-.384 5.184-1.152 1.44-.816 2.592-1.944 3.456-3.384.912-1.44 1.584-3.168 2.016-5.184.432-2.064.648-4.368.648-6.912v-8.208c0-2.496-.216-4.776-.648-6.84s-1.104-3.816-2.016-5.256c-.864-1.44-2.016-2.544-3.456-3.312-1.44-.816-3.168-1.224-5.184-1.224s-3.744.408-5.184 1.224c-1.44.768-2.616 1.872-3.528 3.312-.864 1.44-1.512 3.192-1.944 5.256s-.648 4.344-.648 6.84v8.208c0 2.544.216 4.848.648 6.912.432 2.016 1.08 3.744 1.944 5.184.912 1.44 2.088 2.568 3.528 3.384 1.44.768 3.168 1.152 5.184 1.152zm0-16.488c-1.68 0-2.856-.336-3.528-1.008-.624-.672-.936-1.488-.936-2.448v-1.584c0-.96.312-1.776.936-2.448.672-.672 1.848-1.008 3.528-1.008s2.832.336 3.456 1.008c.672.672 1.008 1.488 1.008 2.448v1.584c0 .96-.336 1.776-1.008 2.448-.624.672-1.776 1.008-3.456 1.008zm43.172 21.744c-3.072 0-5.712-.576-7.92-1.728-2.208-1.2-4.032-2.904-5.472-5.112s-2.496-4.92-3.168-8.136-1.008-6.888-1.008-11.016c0-4.08.336-7.728 1.008-10.944.672-3.264 1.728-6 3.168-8.208s3.264-3.888 5.472-5.04c2.208-1.2 4.848-1.8 7.92-1.8s5.712.6 7.92 1.8c2.208 1.152 4.032 2.832 5.472 5.04s2.496 4.944 3.168 8.208c.672 3.216 1.008 6.864 1.008 10.944 0 4.128-.336 7.8-1.008 11.016s-1.728 5.928-3.168 8.136-3.264 3.912-5.472 5.112c-2.208 1.152-4.848 1.728-7.92 1.728zm0-5.256c2.016 0 3.744-.384 5.184-1.152 1.44-.816 2.592-1.944 3.456-3.384.912-1.44 1.584-3.168 2.016-5.184.432-2.064.648-4.368.648-6.912v-8.208c0-2.496-.216-4.776-.648-6.84s-1.104-3.816-2.016-5.256c-.864-1.44-2.016-2.544-3.456-3.312-1.44-.816-3.168-1.224-5.184-1.224s-3.744.408-5.184 1.224c-1.44.768-2.616 1.872-3.528 3.312-.864 1.44-1.512 3.192-1.944 5.256s-.648 4.344-.648 6.84v8.208c0 2.544.216 4.848.648 6.912.432 2.016 1.08 3.744 1.944 5.184.912 1.44 2.088 2.568 3.528 3.384 1.44.768 3.168 1.152 5.184 1.152zm0-16.488c-1.68 0-2.856-.336-3.528-1.008-.624-.672-.936-1.488-.936-2.448v-1.584c0-.96.312-1.776.936-2.448.672-.672 1.848-1.008 3.528-1.008s2.832.336 3.456 1.008c.672.672 1.008 1.488 1.008 2.448v1.584c0 .96-.336 1.776-1.008 2.448-.624.672-1.776 1.008-3.456 1.008zm43.172 21.744c-3.072 0-5.712-.576-7.92-1.728-2.208-1.2-4.032-2.904-5.472-5.112s-2.496-4.92-3.168-8.136-1.008-6.888-1.008-11.016c0-4.08.336-7.728 1.008-10.944.672-3.264 1.728-6 3.168-8.208s3.264-3.888 5.472-5.04c2.208-1.2 4.848-1.8 7.92-1.8s5.712.6 7.92 1.8c2.208 1.152 4.032 2.832 5.472 5.04s2.496 4.944 3.168 8.208c.672 3.216 1.008 6.864 1.008 10.944 0 4.128-.336 7.8-1.008 11.016s-1.728 5.928-3.168 8.136-3.264 3.912-5.472 5.112c-2.208 1.152-4.848 1.728-7.92 1.728zm0-5.256c2.016 0 3.744-.384 5.184-1.152 1.44-.816 2.592-1.944 3.456-3.384.912-1.44 1.584-3.168 2.016-5.184.432-2.064.648-4.368.648-6.912v-8.208c0-2.496-.216-4.776-.648-6.84s-1.104-3.816-2.016-5.256c-.864-1.44-2.016-2.544-3.456-3.312-1.44-.816-3.168-1.224-5.184-1.224s-3.744.408-5.184 1.224c-1.44.768-2.616 1.872-3.528 3.312-.864 1.44-1.512 3.192-1.944 5.256s-.648 4.344-.648 6.84v8.208c0 2.544.216 4.848.648 6.912.432 2.016 1.08 3.744 1.944 5.184.912 1.44 2.088 2.568 3.528 3.384 1.44.768 3.168 1.152 5.184 1.152zm0-16.488c-1.68 0-2.856-.336-3.528-1.008-.624-.672-.936-1.488-.936-2.448v-1.584c0-.96.312-1.776.936-2.448.672-.672 1.848-1.008 3.528-1.008s2.832.336 3.456 1.008c.672.672 1.008 1.488 1.008 2.448v1.584c0 .96-.336 1.776-1.008 2.448-.624.672-1.776 1.008-3.456 1.008z" fill="#fff"/><path d="m93.666 745 8.736-20.032h-9.792v4.16h-2.4v-6.464h14.912v2.368l-8.576 19.968zm47.604.384c-1.174 0-2.23-.192-3.168-.576-.939-.405-1.739-.971-2.4-1.696-.64-.747-1.142-1.653-1.504-2.72-.342-1.067-.512-2.261-.512-3.584 0-1.664.245-3.221.736-4.672.512-1.472 1.152-2.805 1.92-4 .789-1.216 1.664-2.283 2.624-3.2.96-.939 1.898-1.696 2.816-2.272h3.456c-1.216.875-2.304 1.728-3.264 2.56-.939.832-1.771 1.707-2.496 2.624-.726.896-1.334 1.867-1.824 2.912-.491 1.024-.896 2.187-1.216 3.488l.16.064c.533-.917 1.237-1.675 2.112-2.272.874-.619 2.005-.928 3.392-.928.981 0 1.877.16 2.688.48.81.32 1.514.779 2.112 1.376.597.597 1.056 1.323 1.376 2.176.341.853.512 1.803.512 2.848 0 1.088-.182 2.091-.544 3.008-.363.896-.875 1.675-1.536 2.336-.64.64-1.43 1.141-2.368 1.504-.918.363-1.942.544-3.072.544zm-.032-2.272c1.536 0 2.72-.416 3.552-1.248.853-.832 1.28-2.005 1.28-3.52v-.256c0-1.515-.427-2.688-1.28-3.52-.832-.832-2.016-1.248-3.552-1.248s-2.731.416-3.584 1.248c-.832.832-1.248 2.005-1.248 3.52v.256c0 1.515.416 2.688 1.248 3.52.853.832 2.048 1.248 3.584 1.248zm49.939-18.112h-9.984l-.64 8.544h.224c.555-.747 1.173-1.333 1.856-1.76.683-.448 1.621-.672 2.816-.672.981 0 1.877.16 2.688.48.832.299 1.547.747 2.144 1.344s1.067 1.323 1.408 2.176c.341.832.512 1.792.512 2.88s-.171 2.091-.512 3.008c-.341.896-.843 1.675-1.504 2.336-.661.64-1.461 1.141-2.4 1.504s-2.005.544-3.2.544c-.939 0-1.781-.107-2.528-.32-.725-.213-1.376-.501-1.952-.864-.555-.363-1.045-.768-1.472-1.216s-.811-.917-1.152-1.408l2.016-1.536c.299.448.597.853.896 1.216.32.363.683.683 1.088.96.405.256.864.459 1.376.608s1.109.224 1.792.224c1.536 0 2.709-.416 3.52-1.248.832-.832 1.248-1.984 1.248-3.456v-.256c0-1.472-.416-2.624-1.248-3.456s-2.027-1.248-3.584-1.248c-1.067 0-1.899.181-2.496.544-.576.363-1.109.811-1.6 1.344l-2.272-.32.8-12.288h12.16zm39.571 20v-4.384h-11.008v-2.368l9.664-15.584h3.904v15.744h3.328v2.208h-3.328v4.384zm-8.608-6.592h8.608v-13.664h-.128zm48.66-6.272c1.557 0 2.72-.341 3.488-1.024.789-.704 1.184-1.6 1.184-2.688v-.224c0-1.195-.384-2.091-1.152-2.688-.747-.597-1.728-.896-2.944-.896-1.195 0-2.165.267-2.912.8-.725.512-1.323 1.195-1.792 2.048l-2.016-1.536c.277-.448.619-.885 1.024-1.312.405-.448.875-.843 1.408-1.184.555-.341 1.184-.619 1.888-.832.725-.213 1.547-.32 2.464-.32.96 0 1.856.128 2.688.384.832.235 1.557.597 2.176 1.088.619.469 1.099 1.056 1.44 1.76.363.704.544 1.504.544 2.4 0 .725-.117 1.376-.352 1.952-.213.576-.523 1.077-.928 1.504-.384.427-.843.789-1.376 1.088s-1.099.523-1.696.672v.128c.619.128 1.216.341 1.792.64.576.277 1.088.651 1.536 1.12.448.448.8 1.003 1.056 1.664.277.64.416 1.376.416 2.208 0 .96-.192 1.845-.576 2.656-.363.789-.885 1.472-1.568 2.048-.661.555-1.472.992-2.432 1.312-.939.32-1.984.48-3.136.48-.981 0-1.856-.107-2.624-.32-.747-.213-1.419-.501-2.016-.864-.576-.363-1.088-.768-1.536-1.216-.427-.448-.811-.917-1.152-1.408l2.016-1.536c.299.448.608.853.928 1.216s.683.683 1.088.96c.427.256.907.459 1.44.608s1.152.224 1.856.224c1.579 0 2.784-.363 3.616-1.088.853-.725 1.28-1.76 1.28-3.104v-.256c0-1.323-.416-2.347-1.248-3.072-.811-.725-2.037-1.088-3.68-1.088h-2.656v-2.304zm52.052 12.864h-14.912v-2.752l7.456-6.72c1.088-.981 1.984-1.984 2.688-3.008.704-1.045 1.056-2.144 1.056-3.296v-.384c0-1.344-.352-2.379-1.056-3.104-.704-.747-1.75-1.12-3.136-1.12-1.366 0-2.422.352-3.168 1.056-.726.683-1.27 1.6-1.632 2.752l-2.4-.896c.213-.661.501-1.301.864-1.92.384-.64.864-1.205 1.44-1.696s1.269-.885 2.08-1.184c.832-.299 1.792-.448 2.88-.448 1.109 0 2.09.16 2.944.48.874.32 1.6.768 2.176 1.344.597.576 1.045 1.259 1.344 2.048.32.789.48 1.653.48 2.592 0 .853-.128 1.653-.384 2.4-.235.747-.576 1.461-1.024 2.144-.427.683-.95 1.355-1.568 2.016-.598.64-1.27 1.28-2.016 1.92l-6.24 5.44h12.128zm29.043 0v-2.336h6.4v-18.016h-.224l-5.632 5.248-1.568-1.696 5.92-5.536h4.192v20h5.888v2.336zm50.387.384c-1.365 0-2.538-.256-3.52-.768-.981-.533-1.792-1.291-2.432-2.272s-1.109-2.187-1.408-3.616c-.298-1.429-.448-3.061-.448-4.896 0-1.813.15-3.435.448-4.864.299-1.451.768-2.667 1.408-3.648s1.451-1.728 2.432-2.24c.982-.533 2.155-.8 3.52-.8 1.366 0 2.539.267 3.52.8.982.512 1.792 1.259 2.432 2.24s1.11 2.197 1.408 3.648c.299 1.429.448 3.051.448 4.864 0 1.835-.149 3.467-.448 4.896-.298 1.429-.768 2.635-1.408 3.616s-1.45 1.739-2.432 2.272c-.981.512-2.154.768-3.52.768zm0-2.336c.896 0 1.664-.171 2.304-.512.64-.363 1.152-.864 1.536-1.504.406-.64.704-1.408.896-2.304.192-.917.288-1.941.288-3.072v-3.648c0-1.109-.096-2.123-.288-3.04s-.49-1.696-.896-2.336c-.384-.64-.896-1.131-1.536-1.472-.64-.363-1.408-.544-2.304-.544s-1.664.181-2.304.544c-.64.341-1.162.832-1.568 1.472-.384.64-.672 1.419-.864 2.336s-.288 1.931-.288 3.04v3.648c0 1.131.096 2.155.288 3.072.192.896.48 1.664.864 2.304.406.64.928 1.141 1.568 1.504.64.341 1.408.512 2.304.512zm0-7.328c-.746 0-1.269-.149-1.568-.448-.277-.299-.416-.661-.416-1.088v-.704c0-.427.139-.789.416-1.088.299-.299.822-.448 1.568-.448.747 0 1.259.149 1.536.448.299.299.448.661.448 1.088v.704c0 .427-.149.789-.448 1.088-.277.299-.789.448-1.536.448z" fill="#fff" opacity=".5"/></svg>