<svg fill="none" height="834" viewBox="0 0 1334 834" width="1334" xmlns="http://www.w3.org/2000/svg"><circle cx="131" cy="118" fill="#f00" r="22"/><circle cx="131" cy="165" fill="#f00" r="22"/><circle cx="131" cy="212" fill="#f00" r="22"/><circle cx="131" cy="259" fill="#f00" r="22"/><circle cx="178" cy="118" fill="#141414" r="22"/><circle cx="178" cy="165" fill="#141414" r="22"/><circle cx="178" cy="212" fill="#f00" r="22"/><circle cx="178" cy="259" fill="#f00" r="22"/><circle cx="473" cy="118" fill="#141414" r="22"/><circle cx="473" cy="165" fill="#141414" r="22"/><circle cx="473" cy="212" fill="#f00" r="22"/><circle cx="473" cy="259" fill="#141414" r="22"/><circle cx="520" cy="118" fill="#f00" r="22"/><circle cx="520" cy="165" fill="#141414" r="22"/><circle cx="520" cy="212" fill="#141414" r="22"/><circle cx="520" cy="259" fill="#f00" r="22"/><circle cx="813" cy="118" fill="#f00" r="22"/><circle cx="813" cy="165" fill="#141414" r="22"/><circle cx="813" cy="212" fill="#f00" r="22"/><circle cx="813" cy="259" fill="#f00" r="22"/><circle cx="860" cy="118" fill="#141414" r="22"/><circle cx="860" cy="165" fill="#141414" r="22"/><circle cx="860" cy="212" fill="#141414" r="22"/><circle cx="860" cy="259" fill="#f00" r="22"/><circle cx="1154" cy="118" fill="#f00" r="22"/><circle cx="1154" cy="165" fill="#141414" r="22"/><g fill="#f00"><circle cx="1154" cy="212" r="22"/><circle cx="1154" cy="259" r="22"/><circle cx="1201" cy="118" r="22"/><circle cx="1201" cy="165" r="22"/><circle cx="1201" cy="212" r="22"/><circle cx="1201" cy="259" r="22"/><path d="m80.97 344v-2.336h6.4v-18.016h-.224l-5.632 5.248-1.568-1.696 5.92-5.536h4.192v20h5.888v2.336zm19.188 0v-2.336h6.4v-18.016h-.224l-5.632 5.248-1.5685-1.696 5.9205-5.536h4.192v20h5.888v2.336zm19.187 0v-2.336h6.4v-18.016h-.224l-5.632 5.248-1.568-1.696 5.92-5.536h4.192v20h5.888v2.336zm19.188 0v-2.336h6.4v-18.016h-.224l-5.632 5.248-1.568-1.696 5.92-5.536h4.192v20h5.888v2.336zm26.067.384c-1.365 0-2.539-.256-3.52-.768-.981-.533-1.792-1.291-2.432-2.272s-1.109-2.187-1.408-3.616-.448-3.061-.448-4.896c0-1.813.149-3.435.448-4.864.299-1.451.768-2.667 1.408-3.648s1.451-1.728 2.432-2.24c.981-.533 2.155-.8 3.52-.8s2.539.267 3.52.8c.981.512 1.792 1.259 2.432 2.24s1.109 2.197 1.408 3.648c.299 1.429.448 3.051.448 4.864 0 1.835-.149 3.467-.448 4.896s-.768 2.635-1.408 3.616-1.451 1.739-2.432 2.272c-.981.512-2.155.768-3.52.768zm0-2.336c.896 0 1.664-.171 2.304-.512.64-.363 1.152-.864 1.536-1.504.405-.64.704-1.408.896-2.304.192-.917.288-1.941.288-3.072v-3.648c0-1.109-.096-2.123-.288-3.04s-.491-1.696-.896-2.336c-.384-.64-.896-1.131-1.536-1.472-.64-.363-1.408-.544-2.304-.544s-1.664.181-2.304.544c-.64.341-1.163.832-1.568 1.472-.384.64-.672 1.419-.864 2.336s-.288 1.931-.288 3.04v3.648c0 1.131.096 2.155.288 3.072.192.896.48 1.664.864 2.304.405.64.928 1.141 1.568 1.504.64.341 1.408.512 2.304.512zm0-7.328c-.747 0-1.269-.149-1.568-.448-.277-.299-.416-.661-.416-1.088v-.704c0-.427.139-.789.416-1.088.299-.299.821-.448 1.568-.448s1.259.149 1.536.448c.299.299.448.661.448 1.088v.704c0 .427-.149.789-.448 1.088-.277.299-.789.448-1.536.448zm12.308 9.28v-2.336h6.4v-18.016h-.224l-5.632 5.248-1.568-1.696 5.92-5.536h4.192v20h5.888v2.336zm26.067.384c-1.365 0-2.539-.256-3.52-.768-.981-.533-1.792-1.291-2.432-2.272s-1.109-2.187-1.408-3.616-.448-3.061-.448-4.896c0-1.813.149-3.435.448-4.864.299-1.451.768-2.667 1.408-3.648s1.451-1.728 2.432-2.24c.981-.533 2.155-.8 3.52-.8s2.539.267 3.52.8c.981.512 1.792 1.259 2.432 2.24s1.109 2.197 1.408 3.648c.299 1.429.448 3.051.448 4.864 0 1.835-.149 3.467-.448 4.896s-.768 2.635-1.408 3.616-1.451 1.739-2.432 2.272c-.981.512-2.155.768-3.52.768zm0-2.336c.896 0 1.664-.171 2.304-.512.64-.363 1.152-.864 1.536-1.504.405-.64.704-1.408.896-2.304.192-.917.288-1.941.288-3.072v-3.648c0-1.109-.096-2.123-.288-3.04s-.491-1.696-.896-2.336c-.384-.64-.896-1.131-1.536-1.472-.64-.363-1.408-.544-2.304-.544s-1.664.181-2.304.544c-.64.341-1.163.832-1.568 1.472-.384.64-.672 1.419-.864 2.336s-.288 1.931-.288 3.04v3.648c0 1.131.096 2.155.288 3.072.192.896.48 1.664.864 2.304.405.64.928 1.141 1.568 1.504.64.341 1.408.512 2.304.512zm0-7.328c-.747 0-1.269-.149-1.568-.448-.277-.299-.416-.661-.416-1.088v-.704c0-.427.139-.789.416-1.088.299-.299.821-.448 1.568-.448s1.259.149 1.536.448c.299.299.448.661.448 1.088v.704c0 .427-.149.789-.448 1.088-.277.299-.789.448-1.536.448zm12.308 9.28v-2.336h6.4v-18.016h-.224l-5.632 5.248-1.568-1.696 5.92-5.536h4.192v20h5.888v2.336z"/><path d="m421.97 344v-2.336h6.4v-18.016h-.224l-5.632 5.248-1.568-1.696 5.92-5.536h4.192v20h5.888v2.336zm26.068.384c-1.366 0-2.539-.256-3.52-.768-.982-.533-1.792-1.291-2.432-2.272s-1.11-2.187-1.408-3.616c-.299-1.429-.448-3.061-.448-4.896 0-1.813.149-3.435.448-4.864.298-1.451.768-2.667 1.408-3.648s1.45-1.728 2.432-2.24c.981-.533 2.154-.8 3.52-.8 1.365 0 2.538.267 3.52.8.981.512 1.792 1.259 2.432 2.24s1.109 2.197 1.408 3.648c.298 1.429.448 3.051.448 4.864 0 1.835-.15 3.467-.448 4.896-.299 1.429-.768 2.635-1.408 3.616s-1.451 1.739-2.432 2.272c-.982.512-2.155.768-3.52.768zm0-2.336c.896 0 1.664-.171 2.304-.512.64-.363 1.152-.864 1.536-1.504.405-.64.704-1.408.896-2.304.192-.917.288-1.941.288-3.072v-3.648c0-1.109-.096-2.123-.288-3.04s-.491-1.696-.896-2.336c-.384-.64-.896-1.131-1.536-1.472-.64-.363-1.408-.544-2.304-.544s-1.664.181-2.304.544c-.64.341-1.163.832-1.568 1.472-.384.64-.672 1.419-.864 2.336s-.288 1.931-.288 3.04v3.648c0 1.131.096 2.155.288 3.072.192.896.48 1.664.864 2.304.405.64.928 1.141 1.568 1.504.64.341 1.408.512 2.304.512zm0-7.328c-.747 0-1.27-.149-1.568-.448-.278-.299-.416-.661-.416-1.088v-.704c0-.427.138-.789.416-1.088.298-.299.821-.448 1.568-.448.746 0 1.258.149 1.536.448.298.299.448.661.448 1.088v.704c0 .427-.15.789-.448 1.088-.278.299-.79.448-1.536.448zm19.187 9.664c-1.365 0-2.539-.256-3.52-.768-.981-.533-1.792-1.291-2.432-2.272s-1.109-2.187-1.408-3.616-.448-3.061-.448-4.896c0-1.813.149-3.435.448-4.864.299-1.451.768-2.667 1.408-3.648s1.451-1.728 2.432-2.24c.981-.533 2.155-.8 3.52-.8s2.539.267 3.52.8c.981.512 1.792 1.259 2.432 2.24s1.109 2.197 1.408 3.648c.299 1.429.448 3.051.448 4.864 0 1.835-.149 3.467-.448 4.896s-.768 2.635-1.408 3.616-1.451 1.739-2.432 2.272c-.981.512-2.155.768-3.52.768zm0-2.336c.896 0 1.664-.171 2.304-.512.64-.363 1.152-.864 1.536-1.504.405-.64.704-1.408.896-2.304.192-.917.288-1.941.288-3.072v-3.648c0-1.109-.096-2.123-.288-3.04s-.491-1.696-.896-2.336c-.384-.64-.896-1.131-1.536-1.472-.64-.363-1.408-.544-2.304-.544s-1.664.181-2.304.544c-.64.341-1.163.832-1.568 1.472-.384.64-.672 1.419-.864 2.336s-.288 1.931-.288 3.04v3.648c0 1.131.096 2.155.288 3.072.192.896.48 1.664.864 2.304.405.64.928 1.141 1.568 1.504.64.341 1.408.512 2.304.512zm0-7.328c-.747 0-1.269-.149-1.568-.448-.277-.299-.416-.661-.416-1.088v-.704c0-.427.139-.789.416-1.088.299-.299.821-.448 1.568-.448s1.259.149 1.536.448c.299.299.448.661.448 1.088v.704c0 .427-.149.789-.448 1.088-.277.299-.789.448-1.536.448zm12.308 9.28v-2.336h6.4v-18.016h-.224l-5.632 5.248-1.568-1.696 5.92-5.536h4.192v20h5.888v2.336zm26.067.384c-1.365 0-2.539-.256-3.52-.768-.981-.533-1.792-1.291-2.432-2.272s-1.109-2.187-1.408-3.616-.448-3.061-.448-4.896c0-1.813.149-3.435.448-4.864.299-1.451.768-2.667 1.408-3.648s1.451-1.728 2.432-2.24c.981-.533 2.155-.8 3.52-.8s2.539.267 3.52.8c.981.512 1.792 1.259 2.432 2.24s1.109 2.197 1.408 3.648c.299 1.429.448 3.051.448 4.864 0 1.835-.149 3.467-.448 4.896s-.768 2.635-1.408 3.616-1.451 1.739-2.432 2.272c-.981.512-2.155.768-3.52.768zm0-2.336c.896 0 1.664-.171 2.304-.512.64-.363 1.152-.864 1.536-1.504.405-.64.704-1.408.896-2.304.192-.917.288-1.941.288-3.072v-3.648c0-1.109-.096-2.123-.288-3.04s-.491-1.696-.896-2.336c-.384-.64-.896-1.131-1.536-1.472-.64-.363-1.408-.544-2.304-.544s-1.664.181-2.304.544c-.64.341-1.163.832-1.568 1.472-.384.64-.672 1.419-.864 2.336s-.288 1.931-.288 3.04v3.648c0 1.131.096 2.155.288 3.072.192.896.48 1.664.864 2.304.405.64.928 1.141 1.568 1.504.64.341 1.408.512 2.304.512zm0-7.328c-.747 0-1.269-.149-1.568-.448-.277-.299-.416-.661-.416-1.088v-.704c0-.427.139-.789.416-1.088.299-.299.821-.448 1.568-.448s1.259.149 1.536.448c.299.299.448.661.448 1.088v.704c0 .427-.149.789-.448 1.088-.277.299-.789.448-1.536.448zm19.188 9.664c-1.366 0-2.539-.256-3.52-.768-.982-.533-1.792-1.291-2.432-2.272s-1.11-2.187-1.408-3.616c-.299-1.429-.448-3.061-.448-4.896 0-1.813.149-3.435.448-4.864.298-1.451.768-2.667 1.408-3.648s1.45-1.728 2.432-2.24c.981-.533 2.154-.8 3.52-.8 1.365 0 2.538.267 3.52.8.981.512 1.792 1.259 2.432 2.24s1.109 2.197 1.408 3.648c.298 1.429.448 3.051.448 4.864 0 1.835-.15 3.467-.448 4.896-.299 1.429-.768 2.635-1.408 3.616s-1.451 1.739-2.432 2.272c-.982.512-2.155.768-3.52.768zm0-2.336c.896 0 1.664-.171 2.304-.512.64-.363 1.152-.864 1.536-1.504.405-.64.704-1.408.896-2.304.192-.917.288-1.941.288-3.072v-3.648c0-1.109-.096-2.123-.288-3.04s-.491-1.696-.896-2.336c-.384-.64-.896-1.131-1.536-1.472-.64-.363-1.408-.544-2.304-.544s-1.664.181-2.304.544c-.64.341-1.163.832-1.568 1.472-.384.64-.672 1.419-.864 2.336s-.288 1.931-.288 3.04v3.648c0 1.131.096 2.155.288 3.072.192.896.48 1.664.864 2.304.405.64.928 1.141 1.568 1.504.64.341 1.408.512 2.304.512zm0-7.328c-.747 0-1.27-.149-1.568-.448-.278-.299-.416-.661-.416-1.088v-.704c0-.427.138-.789.416-1.088.298-.299.821-.448 1.568-.448.746 0 1.258.149 1.536.448.298.299.448.661.448 1.088v.704c0 .427-.15.789-.448 1.088-.278.299-.79.448-1.536.448zm12.307 9.28v-2.336h6.4v-18.016h-.224l-5.632 5.248-1.568-1.696 5.92-5.536h4.192v20h5.888v2.336zm26.068.384c-1.366 0-2.539-.256-3.52-.768-.982-.533-1.792-1.291-2.432-2.272s-1.11-2.187-1.408-3.616c-.299-1.429-.448-3.061-.448-4.896 0-1.813.149-3.435.448-4.864.298-1.451.768-2.667 1.408-3.648s1.45-1.728 2.432-2.24c.981-.533 2.154-.8 3.52-.8 1.365 0 2.538.267 3.52.8.981.512 1.792 1.259 2.432 2.24s1.109 2.197 1.408 3.648c.298 1.429.448 3.051.448 4.864 0 1.835-.15 3.467-.448 4.896-.299 1.429-.768 2.635-1.408 3.616s-1.451 1.739-2.432 2.272c-.982.512-2.155.768-3.52.768zm0-2.336c.896 0 1.664-.171 2.304-.512.64-.363 1.152-.864 1.536-1.504.405-.64.704-1.408.896-2.304.192-.917.288-1.941.288-3.072v-3.648c0-1.109-.096-2.123-.288-3.04s-.491-1.696-.896-2.336c-.384-.64-.896-1.131-1.536-1.472-.64-.363-1.408-.544-2.304-.544s-1.664.181-2.304.544c-.64.341-1.163.832-1.568 1.472-.384.64-.672 1.419-.864 2.336s-.288 1.931-.288 3.04v3.648c0 1.131.096 2.155.288 3.072.192.896.48 1.664.864 2.304.405.64.928 1.141 1.568 1.504.64.341 1.408.512 2.304.512zm0-7.328c-.747 0-1.27-.149-1.568-.448-.278-.299-.416-.661-.416-1.088v-.704c0-.427.138-.789.416-1.088.298-.299.821-.448 1.568-.448.746 0 1.258.149 1.536.448.298.299.448.661.448 1.088v.704c0 .427-.15.789-.448 1.088-.278.299-.79.448-1.536.448z"/><path d="m762.97 344v-2.336h6.4v-18.016h-.224l-5.632 5.248-1.568-1.696 5.92-5.536h4.192v20h5.888v2.336zm19.188 0v-2.336h6.4v-18.016h-.224l-5.632 5.248-1.568-1.696 5.92-5.536h4.192v20h5.888v2.336zm19.187 0v-2.336h6.4v-18.016h-.224l-5.632 5.248-1.568-1.696 5.92-5.536h4.192v20h5.888v2.336zm19.188 0v-2.336h6.4v-18.016h-.224l-5.632 5.248-1.568-1.696 5.92-5.536h4.192v20h5.888v2.336zm26.067.384c-1.365 0-2.539-.256-3.52-.768-.981-.533-1.792-1.291-2.432-2.272s-1.109-2.187-1.408-3.616-.448-3.061-.448-4.896c0-1.813.149-3.435.448-4.864.299-1.451.768-2.667 1.408-3.648s1.451-1.728 2.432-2.24c.981-.533 2.155-.8 3.52-.8s2.539.267 3.52.8c.981.512 1.792 1.259 2.432 2.24s1.109 2.197 1.408 3.648c.299 1.429.448 3.051.448 4.864 0 1.835-.149 3.467-.448 4.896s-.768 2.635-1.408 3.616-1.451 1.739-2.432 2.272c-.981.512-2.155.768-3.52.768zm0-2.336c.896 0 1.664-.171 2.304-.512.64-.363 1.152-.864 1.536-1.504.405-.64.704-1.408.896-2.304.192-.917.288-1.941.288-3.072v-3.648c0-1.109-.096-2.123-.288-3.04s-.491-1.696-.896-2.336c-.384-.64-.896-1.131-1.536-1.472-.64-.363-1.408-.544-2.304-.544s-1.664.181-2.304.544c-.64.341-1.163.832-1.568 1.472-.384.64-.672 1.419-.864 2.336s-.288 1.931-.288 3.04v3.648c0 1.131.096 2.155.288 3.072.192.896.48 1.664.864 2.304.405.64.928 1.141 1.568 1.504.64.341 1.408.512 2.304.512zm0-7.328c-.747 0-1.269-.149-1.568-.448-.277-.299-.416-.661-.416-1.088v-.704c0-.427.139-.789.416-1.088.299-.299.821-.448 1.568-.448s1.259.149 1.536.448c.299.299.448.661.448 1.088v.704c0 .427-.149.789-.448 1.088-.277.299-.789.448-1.536.448zm19.188 9.664c-1.366 0-2.539-.256-3.52-.768-.982-.533-1.792-1.291-2.432-2.272s-1.11-2.187-1.408-3.616c-.299-1.429-.448-3.061-.448-4.896 0-1.813.149-3.435.448-4.864.298-1.451.768-2.667 1.408-3.648s1.45-1.728 2.432-2.24c.981-.533 2.154-.8 3.52-.8 1.365 0 2.538.267 3.52.8.981.512 1.792 1.259 2.432 2.24s1.109 2.197 1.408 3.648c.298 1.429.448 3.051.448 4.864 0 1.835-.15 3.467-.448 4.896-.299 1.429-.768 2.635-1.408 3.616s-1.451 1.739-2.432 2.272c-.982.512-2.155.768-3.52.768zm0-2.336c.896 0 1.664-.171 2.304-.512.64-.363 1.152-.864 1.536-1.504.405-.64.704-1.408.896-2.304.192-.917.288-1.941.288-3.072v-3.648c0-1.109-.096-2.123-.288-3.04s-.491-1.696-.896-2.336c-.384-.64-.896-1.131-1.536-1.472-.64-.363-1.408-.544-2.304-.544s-1.664.181-2.304.544c-.64.341-1.163.832-1.568 1.472-.384.64-.672 1.419-.864 2.336s-.288 1.931-.288 3.04v3.648c0 1.131.096 2.155.288 3.072.192.896.48 1.664.864 2.304.405.64.928 1.141 1.568 1.504.64.341 1.408.512 2.304.512zm0-7.328c-.747 0-1.27-.149-1.568-.448-.278-.299-.416-.661-.416-1.088v-.704c0-.427.138-.789.416-1.088.298-.299.821-.448 1.568-.448.746 0 1.258.149 1.536.448.298.299.448.661.448 1.088v.704c0 .427-.15.789-.448 1.088-.278.299-.79.448-1.536.448zm19.187 9.664c-1.365 0-2.539-.256-3.52-.768-.981-.533-1.792-1.291-2.432-2.272s-1.109-2.187-1.408-3.616-.448-3.061-.448-4.896c0-1.813.149-3.435.448-4.864.299-1.451.768-2.667 1.408-3.648s1.451-1.728 2.432-2.24c.981-.533 2.155-.8 3.52-.8s2.539.267 3.52.8c.981.512 1.792 1.259 2.432 2.24s1.109 2.197 1.408 3.648c.299 1.429.448 3.051.448 4.864 0 1.835-.149 3.467-.448 4.896s-.768 2.635-1.408 3.616-1.451 1.739-2.432 2.272c-.981.512-2.155.768-3.52.768zm0-2.336c.896 0 1.664-.171 2.304-.512.64-.363 1.152-.864 1.536-1.504.405-.64.704-1.408.896-2.304.192-.917.288-1.941.288-3.072v-3.648c0-1.109-.096-2.123-.288-3.04s-.491-1.696-.896-2.336c-.384-.64-.896-1.131-1.536-1.472-.64-.363-1.408-.544-2.304-.544s-1.664.181-2.304.544c-.64.341-1.163.832-1.568 1.472-.384.64-.672 1.419-.864 2.336s-.288 1.931-.288 3.04v3.648c0 1.131.096 2.155.288 3.072.192.896.48 1.664.864 2.304.405.64.928 1.141 1.568 1.504.64.341 1.408.512 2.304.512zm0-7.328c-.747 0-1.269-.149-1.568-.448-.277-.299-.416-.661-.416-1.088v-.704c0-.427.139-.789.416-1.088.299-.299.821-.448 1.568-.448s1.259.149 1.536.448c.299.299.448.661.448 1.088v.704c0 .427-.149.789-.448 1.088-.277.299-.789.448-1.536.448zm12.308 9.28v-2.336h6.4v-18.016h-.224l-5.632 5.248-1.568-1.696 5.92-5.536h4.192v20h5.888v2.336z"/><path d="m1103.97 344v-2.336h6.4v-18.016h-.22l-5.64 5.248-1.56-1.696 5.92-5.536h4.19v20h5.89v2.336zm19.19 0v-2.336h6.4v-18.016h-.23l-5.63 5.248-1.57-1.696 5.92-5.536h4.2v20h5.88v2.336zm19.19 0v-2.336h6.4v-18.016h-.23l-5.63 5.248-1.57-1.696 5.92-5.536h4.19v20h5.89v2.336zm19.18 0v-2.336h6.4v-18.016h-.22l-5.63 5.248-1.57-1.696 5.92-5.536h4.19v20h5.89v2.336zm19.19 0v-2.336h6.4v-18.016h-.22l-5.64 5.248-1.56-1.696 5.92-5.536h4.19v20h5.89v2.336zm26.07.384c-1.37 0-2.54-.256-3.52-.768-.98-.533-1.79-1.291-2.43-2.272s-1.11-2.187-1.41-3.616-.45-3.061-.45-4.896c0-1.813.15-3.435.45-4.864.3-1.451.77-2.667 1.41-3.648s1.45-1.728 2.43-2.24c.98-.533 2.15-.8 3.52-.8 1.36 0 2.54.267 3.52.8.98.512 1.79 1.259 2.43 2.24s1.11 2.197 1.41 3.648c.3 1.429.45 3.051.45 4.864 0 1.835-.15 3.467-.45 4.896s-.77 2.635-1.41 3.616-1.45 1.739-2.43 2.272c-.98.512-2.16.768-3.52.768zm0-2.336c.89 0 1.66-.171 2.3-.512.64-.363 1.15-.864 1.54-1.504.4-.64.7-1.408.89-2.304.2-.917.29-1.941.29-3.072v-3.648c0-1.109-.09-2.123-.29-3.04-.19-.917-.49-1.696-.89-2.336-.39-.64-.9-1.131-1.54-1.472-.64-.363-1.41-.544-2.3-.544-.9 0-1.67.181-2.31.544-.64.341-1.16.832-1.56 1.472-.39.64-.68 1.419-.87 2.336s-.29 1.931-.29 3.04v3.648c0 1.131.1 2.155.29 3.072.19.896.48 1.664.87 2.304.4.64.92 1.141 1.56 1.504.64.341 1.41.512 2.31.512zm0-7.328c-.75 0-1.27-.149-1.57-.448-.28-.299-.42-.661-.42-1.088v-.704c0-.427.14-.789.42-1.088.3-.299.82-.448 1.57-.448.74 0 1.26.149 1.53.448.3.299.45.661.45 1.088v.704c0 .427-.15.789-.45 1.088-.27.299-.79.448-1.53.448zm12.31 9.28v-2.336h6.4v-18.016h-.23l-5.63 5.248-1.57-1.696 5.92-5.536h4.19v20h5.89v2.336zm19.18 0v-2.336h6.4v-18.016h-.22l-5.63 5.248-1.57-1.696 5.92-5.536h4.19v20h5.89v2.336z"/><circle cx="1154" cy="501" r="22"/></g><circle cx="1154" cy="548" fill="#141414" r="22"/><circle cx="1154" cy="595" fill="#141414" r="22"/><circle cx="1154" cy="642" fill="#f00" r="22"/><circle cx="1201" cy="501" fill="#f00" r="22"/><circle cx="1201" cy="548" fill="#141414" r="22"/><circle cx="1201" cy="595" fill="#f00" r="22"/><circle cx="1201" cy="642" fill="#f00" r="22"/><path d="m1104.97 729v-2.336h6.4v-18.016h-.22l-5.64 5.248-1.56-1.696 5.92-5.536h4.19v20h5.89v2.336zm19.19 0v-2.336h6.4v-18.016h-.23l-5.63 5.248-1.57-1.696 5.92-5.536h4.2v20h5.88v2.336zm19.19 0v-2.336h6.4v-18.016h-.23l-5.63 5.248-1.57-1.696 5.92-5.536h4.19v20h5.89v2.336zm26.06.384c-1.36 0-2.54-.256-3.52-.768-.98-.533-1.79-1.291-2.43-2.272s-1.11-2.187-1.41-3.616-.45-3.061-.45-4.896c0-1.813.15-3.435.45-4.864.3-1.451.77-2.667 1.41-3.648s1.45-1.728 2.43-2.24c.98-.533 2.16-.8 3.52-.8 1.37 0 2.54.267 3.52.8.98.512 1.79 1.259 2.43 2.24s1.11 2.197 1.41 3.648c.3 1.429.45 3.051.45 4.864 0 1.835-.15 3.467-.45 4.896s-.77 2.635-1.41 3.616-1.45 1.739-2.43 2.272c-.98.512-2.15.768-3.52.768zm0-2.336c.9 0 1.67-.171 2.31-.512.64-.363 1.15-.864 1.53-1.504.41-.64.71-1.408.9-2.304.19-.917.29-1.941.29-3.072v-3.648c0-1.109-.1-2.123-.29-3.04s-.49-1.696-.9-2.336c-.38-.64-.89-1.131-1.53-1.472-.64-.363-1.41-.544-2.31-.544-.89 0-1.66.181-2.3.544-.64.341-1.16.832-1.57 1.472-.38.64-.67 1.419-.86 2.336-.2.917-.29 1.931-.29 3.04v3.648c0 1.131.09 2.155.29 3.072.19.896.48 1.664.86 2.304.41.64.93 1.141 1.57 1.504.64.341 1.41.512 2.3.512zm0-7.328c-.74 0-1.27-.149-1.57-.448-.27-.299-.41-.661-.41-1.088v-.704c0-.427.14-.789.41-1.088.3-.299.83-.448 1.57-.448.75 0 1.26.149 1.54.448.3.299.45.661.45 1.088v.704c0 .427-.15.789-.45 1.088-.28.299-.79.448-1.54.448zm19.19 9.664c-1.37 0-2.54-.256-3.52-.768-.98-.533-1.79-1.291-2.43-2.272s-1.11-2.187-1.41-3.616-.45-3.061-.45-4.896c0-1.813.15-3.435.45-4.864.3-1.451.77-2.667 1.41-3.648s1.45-1.728 2.43-2.24c.98-.533 2.15-.8 3.52-.8s2.54.267 3.52.8c.98.512 1.79 1.259 2.43 2.24s1.11 2.197 1.41 3.648c.3 1.429.45 3.051.45 4.864 0 1.835-.15 3.467-.45 4.896s-.77 2.635-1.41 3.616-1.45 1.739-2.43 2.272c-.98.512-2.15.768-3.52.768zm0-2.336c.9 0 1.66-.171 2.3-.512.64-.363 1.16-.864 1.54-1.504.41-.64.7-1.408.9-2.304.19-.917.28-1.941.28-3.072v-3.648c0-1.109-.09-2.123-.28-3.04-.2-.917-.49-1.696-.9-2.336-.38-.64-.9-1.131-1.54-1.472-.64-.363-1.4-.544-2.3-.544s-1.66.181-2.3.544c-.64.341-1.17.832-1.57 1.472-.39.64-.67 1.419-.87 2.336-.19.917-.28 1.931-.28 3.04v3.648c0 1.131.09 2.155.28 3.072.2.896.48 1.664.87 2.304.4.64.93 1.141 1.57 1.504.64.341 1.4.512 2.3.512zm0-7.328c-.75 0-1.27-.149-1.57-.448-.28-.299-.41-.661-.41-1.088v-.704c0-.427.13-.789.41-1.088.3-.299.82-.448 1.57-.448s1.26.149 1.54.448c.29.299.44.661.44 1.088v.704c0 .427-.15.789-.44 1.088-.28.299-.79.448-1.54.448zm19.19 9.664c-1.37 0-2.54-.256-3.52-.768-.98-.533-1.79-1.291-2.43-2.272s-1.11-2.187-1.41-3.616-.45-3.061-.45-4.896c0-1.813.15-3.435.45-4.864.3-1.451.77-2.667 1.41-3.648s1.45-1.728 2.43-2.24c.98-.533 2.15-.8 3.52-.8 1.36 0 2.54.267 3.52.8.98.512 1.79 1.259 2.43 2.24s1.11 2.197 1.41 3.648c.3 1.429.45 3.051.45 4.864 0 1.835-.15 3.467-.45 4.896s-.77 2.635-1.41 3.616-1.45 1.739-2.43 2.272c-.98.512-2.16.768-3.52.768zm0-2.336c.89 0 1.66-.171 2.3-.512.64-.363 1.15-.864 1.54-1.504.4-.64.7-1.408.89-2.304.2-.917.29-1.941.29-3.072v-3.648c0-1.109-.09-2.123-.29-3.04-.19-.917-.49-1.696-.89-2.336-.39-.64-.9-1.131-1.54-1.472-.64-.363-1.41-.544-2.3-.544-.9 0-1.67.181-2.31.544-.64.341-1.16.832-1.56 1.472-.39.64-.68 1.419-.87 2.336s-.29 1.931-.29 3.04v3.648c0 1.131.1 2.155.29 3.072.19.896.48 1.664.87 2.304.4.64.92 1.141 1.56 1.504.64.341 1.41.512 2.31.512zm0-7.328c-.75 0-1.27-.149-1.57-.448-.28-.299-.42-.661-.42-1.088v-.704c0-.427.14-.789.42-1.088.3-.299.82-.448 1.57-.448.74 0 1.26.149 1.53.448.3.299.45.661.45 1.088v.704c0 .427-.15.789-.45 1.088-.27.299-.79.448-1.53.448zm12.31 9.28v-2.336h6.4v-18.016h-.23l-5.63 5.248-1.57-1.696 5.92-5.536h4.19v20h5.89v2.336zm19.18 0v-2.336h6.4v-18.016h-.22l-5.63 5.248-1.57-1.696 5.92-5.536h4.19v20h5.89v2.336z" fill="#f00"/><circle cx="813" cy="503" fill="#f00" r="22"/><circle cx="813" cy="550" fill="#141414" r="22"/><circle cx="813" cy="597" fill="#f00" r="22"/><circle cx="813" cy="644" fill="#f00" r="22"/><circle cx="860" cy="503" fill="#f00" r="22"/><circle cx="860" cy="550" fill="#f00" r="22"/><circle cx="860" cy="597" fill="#f00" r="22"/><circle cx="860" cy="644" fill="#f00" r="22"/><path d="m762.97 729v-2.336h6.4v-18.016h-.224l-5.632 5.248-1.568-1.696 5.92-5.536h4.192v20h5.888v2.336zm19.188 0v-2.336h6.4v-18.016h-.224l-5.632 5.248-1.568-1.696 5.92-5.536h4.192v20h5.888v2.336zm19.187 0v-2.336h6.4v-18.016h-.224l-5.632 5.248-1.568-1.696 5.92-5.536h4.192v20h5.888v2.336zm19.188 0v-2.336h6.4v-18.016h-.224l-5.632 5.248-1.568-1.696 5.92-5.536h4.192v20h5.888v2.336zm19.187 0v-2.336h6.4v-18.016h-.224l-5.632 5.248-1.568-1.696 5.92-5.536h4.192v20h5.888v2.336zm26.068.384c-1.366 0-2.539-.256-3.52-.768-.982-.533-1.792-1.291-2.432-2.272s-1.11-2.187-1.408-3.616c-.299-1.429-.448-3.061-.448-4.896 0-1.813.149-3.435.448-4.864.298-1.451.768-2.667 1.408-3.648s1.45-1.728 2.432-2.24c.981-.533 2.154-.8 3.52-.8 1.365 0 2.538.267 3.52.8.981.512 1.792 1.259 2.432 2.24s1.109 2.197 1.408 3.648c.298 1.429.448 3.051.448 4.864 0 1.835-.15 3.467-.448 4.896-.299 1.429-.768 2.635-1.408 3.616s-1.451 1.739-2.432 2.272c-.982.512-2.155.768-3.52.768zm0-2.336c.896 0 1.664-.171 2.304-.512.64-.363 1.152-.864 1.536-1.504.405-.64.704-1.408.896-2.304.192-.917.288-1.941.288-3.072v-3.648c0-1.109-.096-2.123-.288-3.04s-.491-1.696-.896-2.336c-.384-.64-.896-1.131-1.536-1.472-.64-.363-1.408-.544-2.304-.544s-1.664.181-2.304.544c-.64.341-1.163.832-1.568 1.472-.384.64-.672 1.419-.864 2.336s-.288 1.931-.288 3.04v3.648c0 1.131.096 2.155.288 3.072.192.896.48 1.664.864 2.304.405.64.928 1.141 1.568 1.504.64.341 1.408.512 2.304.512zm0-7.328c-.747 0-1.27-.149-1.568-.448-.278-.299-.416-.661-.416-1.088v-.704c0-.427.138-.789.416-1.088.298-.299.821-.448 1.568-.448.746 0 1.258.149 1.536.448.298.299.448.661.448 1.088v.704c0 .427-.15.789-.448 1.088-.278.299-.79.448-1.536.448zm12.307 9.28v-2.336h6.4v-18.016h-.224l-5.632 5.248-1.568-1.696 5.92-5.536h4.192v20h5.888v2.336zm19.188 0v-2.336h6.4v-18.016h-.224l-5.632 5.248-1.568-1.696 5.92-5.536h4.192v20h5.888v2.336z" fill="#f00"/><circle cx="472" cy="503" fill="#f00" r="22"/><circle cx="472" cy="550" fill="#141414" r="22"/><circle cx="472" cy="597" fill="#141414" r="22"/><circle cx="472" cy="644" fill="#141414" r="22"/><circle cx="519" cy="503" fill="#141414" r="22"/><circle cx="519" cy="550" fill="#141414" r="22"/><circle cx="519" cy="597" fill="#141414" r="22"/><circle cx="519" cy="644" fill="#f00" r="22"/><path d="m421.97 729v-2.336h6.4v-18.016h-.224l-5.632 5.248-1.568-1.696 5.92-5.536h4.192v20h5.888v2.336zm26.068.384c-1.366 0-2.539-.256-3.52-.768-.982-.533-1.792-1.291-2.432-2.272s-1.11-2.187-1.408-3.616c-.299-1.429-.448-3.061-.448-4.896 0-1.813.149-3.435.448-4.864.298-1.451.768-2.667 1.408-3.648s1.45-1.728 2.432-2.24c.981-.533 2.154-.8 3.52-.8 1.365 0 2.538.267 3.52.8.981.512 1.792 1.259 2.432 2.24s1.109 2.197 1.408 3.648c.298 1.429.448 3.051.448 4.864 0 1.835-.15 3.467-.448 4.896-.299 1.429-.768 2.635-1.408 3.616s-1.451 1.739-2.432 2.272c-.982.512-2.155.768-3.52.768zm0-2.336c.896 0 1.664-.171 2.304-.512.64-.363 1.152-.864 1.536-1.504.405-.64.704-1.408.896-2.304.192-.917.288-1.941.288-3.072v-3.648c0-1.109-.096-2.123-.288-3.04s-.491-1.696-.896-2.336c-.384-.64-.896-1.131-1.536-1.472-.64-.363-1.408-.544-2.304-.544s-1.664.181-2.304.544c-.64.341-1.163.832-1.568 1.472-.384.64-.672 1.419-.864 2.336s-.288 1.931-.288 3.04v3.648c0 1.131.096 2.155.288 3.072.192.896.48 1.664.864 2.304.405.64.928 1.141 1.568 1.504.64.341 1.408.512 2.304.512zm0-7.328c-.747 0-1.27-.149-1.568-.448-.278-.299-.416-.661-.416-1.088v-.704c0-.427.138-.789.416-1.088.298-.299.821-.448 1.568-.448.746 0 1.258.149 1.536.448.298.299.448.661.448 1.088v.704c0 .427-.15.789-.448 1.088-.278.299-.79.448-1.536.448zm19.187 9.664c-1.365 0-2.539-.256-3.52-.768-.981-.533-1.792-1.291-2.432-2.272s-1.109-2.187-1.408-3.616-.448-3.061-.448-4.896c0-1.813.149-3.435.448-4.864.299-1.451.768-2.667 1.408-3.648s1.451-1.728 2.432-2.24c.981-.533 2.155-.8 3.52-.8s2.539.267 3.52.8c.981.512 1.792 1.259 2.432 2.24s1.109 2.197 1.408 3.648c.299 1.429.448 3.051.448 4.864 0 1.835-.149 3.467-.448 4.896s-.768 2.635-1.408 3.616-1.451 1.739-2.432 2.272c-.981.512-2.155.768-3.52.768zm0-2.336c.896 0 1.664-.171 2.304-.512.64-.363 1.152-.864 1.536-1.504.405-.64.704-1.408.896-2.304.192-.917.288-1.941.288-3.072v-3.648c0-1.109-.096-2.123-.288-3.04s-.491-1.696-.896-2.336c-.384-.64-.896-1.131-1.536-1.472-.64-.363-1.408-.544-2.304-.544s-1.664.181-2.304.544c-.64.341-1.163.832-1.568 1.472-.384.64-.672 1.419-.864 2.336s-.288 1.931-.288 3.04v3.648c0 1.131.096 2.155.288 3.072.192.896.48 1.664.864 2.304.405.64.928 1.141 1.568 1.504.64.341 1.408.512 2.304.512zm0-7.328c-.747 0-1.269-.149-1.568-.448-.277-.299-.416-.661-.416-1.088v-.704c0-.427.139-.789.416-1.088.299-.299.821-.448 1.568-.448s1.259.149 1.536.448c.299.299.448.661.448 1.088v.704c0 .427-.149.789-.448 1.088-.277.299-.789.448-1.536.448zm19.188 9.664c-1.366 0-2.539-.256-3.52-.768-.982-.533-1.792-1.291-2.432-2.272s-1.11-2.187-1.408-3.616c-.299-1.429-.448-3.061-.448-4.896 0-1.813.149-3.435.448-4.864.298-1.451.768-2.667 1.408-3.648s1.45-1.728 2.432-2.24c.981-.533 2.154-.8 3.52-.8 1.365 0 2.538.267 3.52.8.981.512 1.792 1.259 2.432 2.24s1.109 2.197 1.408 3.648c.298 1.429.448 3.051.448 4.864 0 1.835-.15 3.467-.448 4.896-.299 1.429-.768 2.635-1.408 3.616s-1.451 1.739-2.432 2.272c-.982.512-2.155.768-3.52.768zm0-2.336c.896 0 1.664-.171 2.304-.512.64-.363 1.152-.864 1.536-1.504.405-.64.704-1.408.896-2.304.192-.917.288-1.941.288-3.072v-3.648c0-1.109-.096-2.123-.288-3.04s-.491-1.696-.896-2.336c-.384-.64-.896-1.131-1.536-1.472-.64-.363-1.408-.544-2.304-.544s-1.664.181-2.304.544c-.64.341-1.163.832-1.568 1.472-.384.64-.672 1.419-.864 2.336s-.288 1.931-.288 3.04v3.648c0 1.131.096 2.155.288 3.072.192.896.48 1.664.864 2.304.405.64.928 1.141 1.568 1.504.64.341 1.408.512 2.304.512zm0-7.328c-.747 0-1.27-.149-1.568-.448-.278-.299-.416-.661-.416-1.088v-.704c0-.427.138-.789.416-1.088.298-.299.821-.448 1.568-.448.746 0 1.258.149 1.536.448.298.299.448.661.448 1.088v.704c0 .427-.15.789-.448 1.088-.278.299-.79.448-1.536.448zm19.187 9.664c-1.365 0-2.539-.256-3.52-.768-.981-.533-1.792-1.291-2.432-2.272s-1.109-2.187-1.408-3.616-.448-3.061-.448-4.896c0-1.813.149-3.435.448-4.864.299-1.451.768-2.667 1.408-3.648s1.451-1.728 2.432-2.24c.981-.533 2.155-.8 3.52-.8s2.539.267 3.52.8c.981.512 1.792 1.259 2.432 2.24s1.109 2.197 1.408 3.648c.299 1.429.448 3.051.448 4.864 0 1.835-.149 3.467-.448 4.896s-.768 2.635-1.408 3.616-1.451 1.739-2.432 2.272c-.981.512-2.155.768-3.52.768zm0-2.336c.896 0 1.664-.171 2.304-.512.64-.363 1.152-.864 1.536-1.504.405-.64.704-1.408.896-2.304.192-.917.288-1.941.288-3.072v-3.648c0-1.109-.096-2.123-.288-3.04s-.491-1.696-.896-2.336c-.384-.64-.896-1.131-1.536-1.472-.64-.363-1.408-.544-2.304-.544s-1.664.181-2.304.544c-.64.341-1.163.832-1.568 1.472-.384.64-.672 1.419-.864 2.336s-.288 1.931-.288 3.04v3.648c0 1.131.096 2.155.288 3.072.192.896.48 1.664.864 2.304.405.64.928 1.141 1.568 1.504.64.341 1.408.512 2.304.512zm0-7.328c-.747 0-1.269-.149-1.568-.448-.277-.299-.416-.661-.416-1.088v-.704c0-.427.139-.789.416-1.088.299-.299.821-.448 1.568-.448s1.259.149 1.536.448c.299.299.448.661.448 1.088v.704c0 .427-.149.789-.448 1.088-.277.299-.789.448-1.536.448zm19.188 9.664c-1.366 0-2.539-.256-3.52-.768-.982-.533-1.792-1.291-2.432-2.272s-1.11-2.187-1.408-3.616c-.299-1.429-.448-3.061-.448-4.896 0-1.813.149-3.435.448-4.864.298-1.451.768-2.667 1.408-3.648s1.45-1.728 2.432-2.24c.981-.533 2.154-.8 3.52-.8 1.365 0 2.538.267 3.52.8.981.512 1.792 1.259 2.432 2.24s1.109 2.197 1.408 3.648c.298 1.429.448 3.051.448 4.864 0 1.835-.15 3.467-.448 4.896-.299 1.429-.768 2.635-1.408 3.616s-1.451 1.739-2.432 2.272c-.982.512-2.155.768-3.52.768zm0-2.336c.896 0 1.664-.171 2.304-.512.64-.363 1.152-.864 1.536-1.504.405-.64.704-1.408.896-2.304.192-.917.288-1.941.288-3.072v-3.648c0-1.109-.096-2.123-.288-3.04s-.491-1.696-.896-2.336c-.384-.64-.896-1.131-1.536-1.472-.64-.363-1.408-.544-2.304-.544s-1.664.181-2.304.544c-.64.341-1.163.832-1.568 1.472-.384.64-.672 1.419-.864 2.336s-.288 1.931-.288 3.04v3.648c0 1.131.096 2.155.288 3.072.192.896.48 1.664.864 2.304.405.64.928 1.141 1.568 1.504.64.341 1.408.512 2.304.512zm0-7.328c-.747 0-1.27-.149-1.568-.448-.278-.299-.416-.661-.416-1.088v-.704c0-.427.138-.789.416-1.088.298-.299.821-.448 1.568-.448.746 0 1.258.149 1.536.448.298.299.448.661.448 1.088v.704c0 .427-.15.789-.448 1.088-.278.299-.79.448-1.536.448zm19.187 9.664c-1.365 0-2.539-.256-3.52-.768-.981-.533-1.792-1.291-2.432-2.272s-1.109-2.187-1.408-3.616-.448-3.061-.448-4.896c0-1.813.149-3.435.448-4.864.299-1.451.768-2.667 1.408-3.648s1.451-1.728 2.432-2.24c.981-.533 2.155-.8 3.52-.8s2.539.267 3.52.8c.981.512 1.792 1.259 2.432 2.24s1.109 2.197 1.408 3.648c.299 1.429.448 3.051.448 4.864 0 1.835-.149 3.467-.448 4.896s-.768 2.635-1.408 3.616-1.451 1.739-2.432 2.272c-.981.512-2.155.768-3.52.768zm0-2.336c.896 0 1.664-.171 2.304-.512.64-.363 1.152-.864 1.536-1.504.405-.64.704-1.408.896-2.304.192-.917.288-1.941.288-3.072v-3.648c0-1.109-.096-2.123-.288-3.04s-.491-1.696-.896-2.336c-.384-.64-.896-1.131-1.536-1.472-.64-.363-1.408-.544-2.304-.544s-1.664.181-2.304.544c-.64.341-1.163.832-1.568 1.472-.384.64-.672 1.419-.864 2.336s-.288 1.931-.288 3.04v3.648c0 1.131.096 2.155.288 3.072.192.896.48 1.664.864 2.304.405.64.928 1.141 1.568 1.504.64.341 1.408.512 2.304.512zm0-7.328c-.747 0-1.269-.149-1.568-.448-.277-.299-.416-.661-.416-1.088v-.704c0-.427.139-.789.416-1.088.299-.299.821-.448 1.568-.448s1.259.149 1.536.448c.299.299.448.661.448 1.088v.704c0 .427-.149.789-.448 1.088-.277.299-.789.448-1.536.448zm12.308 9.28v-2.336h6.4v-18.016h-.224l-5.632 5.248-1.568-1.696 5.92-5.536h4.192v20h5.888v2.336z" fill="#f00"/><circle cx="131" cy="503" fill="#f00" r="22"/><circle cx="131" cy="550" fill="#f00" r="22"/><circle cx="131" cy="597" fill="#f00" r="22"/><circle cx="131" cy="644" fill="#141414" r="22"/><circle cx="178" cy="503" fill="#141414" r="22"/><circle cx="178" cy="550" fill="#f00" r="22"/><circle cx="178" cy="597" fill="#141414" r="22"/><circle cx="178" cy="644" fill="#f00" r="22"/><path d="m80.97 729v-2.336h6.4v-18.016h-.224l-5.632 5.248-1.568-1.696 5.92-5.536h4.192v20h5.888v2.336zm26.068.384c-1.366 0-2.539-.256-3.52-.768-.982-.533-1.792-1.291-2.432-2.272s-1.1098-2.187-1.4085-3.616-.448-3.061-.448-4.896c0-1.813.1493-3.435.448-4.864.2987-1.451.7685-2.667 1.4085-3.648s1.45-1.728 2.432-2.24c.981-.533 2.154-.8 3.52-.8 1.365 0 2.538.267 3.52.8.981.512 1.792 1.259 2.432 2.24s1.109 2.197 1.408 3.648c.298 1.429.448 3.051.448 4.864 0 1.835-.15 3.467-.448 4.896-.299 1.429-.768 2.635-1.408 3.616s-1.451 1.739-2.432 2.272c-.982.512-2.155.768-3.52.768zm0-2.336c.896 0 1.664-.171 2.304-.512.64-.363 1.152-.864 1.536-1.504.405-.64.704-1.408.896-2.304.192-.917.288-1.941.288-3.072v-3.648c0-1.109-.096-2.123-.288-3.04s-.491-1.696-.896-2.336c-.384-.64-.896-1.131-1.536-1.472-.64-.363-1.408-.544-2.304-.544s-1.664.181-2.304.544c-.64.341-1.163.832-1.568 1.472-.384.64-.672 1.419-.864 2.336s-.288 1.931-.288 3.04v3.648c0 1.131.096 2.155.288 3.072.192.896.48 1.664.864 2.304.405.64.928 1.141 1.568 1.504.64.341 1.408.512 2.304.512zm0-7.328c-.747 0-1.27-.149-1.568-.448-.278-.299-.416-.661-.416-1.088v-.704c0-.427.138-.789.416-1.088.298-.299.821-.448 1.568-.448.746 0 1.258.149 1.536.448.298.299.448.661.448 1.088v.704c0 .427-.15.789-.448 1.088-.278.299-.79.448-1.536.448zm19.187 9.664c-1.365 0-2.539-.256-3.52-.768-.981-.533-1.792-1.291-2.432-2.272s-1.109-2.187-1.408-3.616-.448-3.061-.448-4.896c0-1.813.149-3.435.448-4.864.299-1.451.768-2.667 1.408-3.648s1.451-1.728 2.432-2.24c.981-.533 2.155-.8 3.52-.8s2.539.267 3.52.8c.981.512 1.792 1.259 2.432 2.24s1.109 2.197 1.408 3.648c.299 1.429.448 3.051.448 4.864 0 1.835-.149 3.467-.448 4.896s-.768 2.635-1.408 3.616-1.451 1.739-2.432 2.272c-.981.512-2.155.768-3.52.768zm0-2.336c.896 0 1.664-.171 2.304-.512.64-.363 1.152-.864 1.536-1.504.405-.64.704-1.408.896-2.304.192-.917.288-1.941.288-3.072v-3.648c0-1.109-.096-2.123-.288-3.04s-.491-1.696-.896-2.336c-.384-.64-.896-1.131-1.536-1.472-.64-.363-1.408-.544-2.304-.544s-1.664.181-2.304.544c-.64.341-1.163.832-1.568 1.472-.384.64-.672 1.419-.864 2.336s-.288 1.931-.288 3.04v3.648c0 1.131.096 2.155.288 3.072.192.896.48 1.664.864 2.304.405.64.928 1.141 1.568 1.504.64.341 1.408.512 2.304.512zm0-7.328c-.747 0-1.269-.149-1.568-.448-.277-.299-.416-.661-.416-1.088v-.704c0-.427.139-.789.416-1.088.299-.299.821-.448 1.568-.448s1.259.149 1.536.448c.299.299.448.661.448 1.088v.704c0 .427-.149.789-.448 1.088-.277.299-.789.448-1.536.448zm12.308 9.28v-2.336h6.4v-18.016h-.224l-5.632 5.248-1.568-1.696 5.92-5.536h4.192v20h5.888v2.336zm19.187 0v-2.336h6.4v-18.016h-.224l-5.632 5.248-1.568-1.696 5.92-5.536h4.192v20h5.888v2.336zm19.188 0v-2.336h6.4v-18.016h-.224l-5.632 5.248-1.568-1.696 5.92-5.536h4.192v20h5.888v2.336zm26.067.384c-1.365 0-2.539-.256-3.52-.768-.981-.533-1.792-1.291-2.432-2.272s-1.109-2.187-1.408-3.616-.448-3.061-.448-4.896c0-1.813.149-3.435.448-4.864.299-1.451.768-2.667 1.408-3.648s1.451-1.728 2.432-2.24c.981-.533 2.155-.8 3.52-.8s2.539.267 3.52.8c.981.512 1.792 1.259 2.432 2.24s1.109 2.197 1.408 3.648c.299 1.429.448 3.051.448 4.864 0 1.835-.149 3.467-.448 4.896s-.768 2.635-1.408 3.616-1.451 1.739-2.432 2.272c-.981.512-2.155.768-3.52.768zm0-2.336c.896 0 1.664-.171 2.304-.512.64-.363 1.152-.864 1.536-1.504.405-.64.704-1.408.896-2.304.192-.917.288-1.941.288-3.072v-3.648c0-1.109-.096-2.123-.288-3.04s-.491-1.696-.896-2.336c-.384-.64-.896-1.131-1.536-1.472-.64-.363-1.408-.544-2.304-.544s-1.664.181-2.304.544c-.64.341-1.163.832-1.568 1.472-.384.64-.672 1.419-.864 2.336s-.288 1.931-.288 3.04v3.648c0 1.131.096 2.155.288 3.072.192.896.48 1.664.864 2.304.405.64.928 1.141 1.568 1.504.64.341 1.408.512 2.304.512zm0-7.328c-.747 0-1.269-.149-1.568-.448-.277-.299-.416-.661-.416-1.088v-.704c0-.427.139-.789.416-1.088.299-.299.821-.448 1.568-.448s1.259.149 1.536.448c.299.299.448.661.448 1.088v.704c0 .427-.149.789-.448 1.088-.277.299-.789.448-1.536.448zm12.308 9.28v-2.336h6.4v-18.016h-.224l-5.632 5.248-1.568-1.696 5.92-5.536h4.192v20h5.888v2.336z" fill="#f00"/></svg>